<svg width="254" height="96" viewBox="0 0 254 96" fill="none" xmlns="http://www.w3.org/2000/svg">
<path d="M105.588 58.6637C105.588 58.1774 105.27 57.8176 104.622 57.6774V57.3628C104.981 57.3628 106.176 57.4108 106.513 57.4108C106.804 57.4108 107.961 57.3628 108.321 57.3628V57.6774C107.72 57.7947 107.404 58.1497 107.404 58.6637V64.8368C107.404 66.7917 108.478 67.8967 110.725 67.8967C112.661 67.8967 114.168 67.028 114.168 64.9822V58.6397C114.168 58.1811 113.88 57.8176 113.154 57.6774V57.3628C113.418 57.3628 114.407 57.4108 114.744 57.4108C115.032 57.4108 116.07 57.3628 116.335 57.3628V57.6774C115.635 57.8442 115.324 58.1571 115.324 58.6397V64.642C115.324 67.336 113.756 68.8832 110.371 68.8832C107.22 68.8832 105.588 67.4522 105.588 64.9212V58.6637Z" fill="#9CA3AF"/>
<path d="M119.103 68.3993C119.836 68.2628 120.126 67.8918 120.126 67.437V58.9049C120.126 58.1812 119.74 57.8557 119.083 57.6763V57.3617C119.455 57.3894 120.079 57.4057 120.397 57.4057C120.687 57.4057 121.137 57.4008 121.44 57.3617L128.846 66.0631V58.6397C128.846 58.1823 128.555 57.8188 127.833 57.6763V57.3617C128.098 57.3617 129.051 57.4109 129.39 57.4109C129.684 57.4109 130.705 57.3617 130.974 57.3617V57.6763C130.268 57.8428 129.927 58.1586 129.927 58.6397V68.883H129.481C129.2 68.8186 128.669 68.5168 127.86 67.6304L121.234 59.9178V67.437C121.234 67.8941 121.498 68.2565 122.221 68.3993V68.7151C121.956 68.7151 121.003 68.6647 120.664 68.6647C120.372 68.6647 119.372 68.7151 119.103 68.7151V68.3993Z" fill="#9CA3AF"/>
<path d="M177.543 66.0984H177.857C178.023 66.7359 178.388 67.3172 178.899 67.653C179.432 68.028 180.267 68.2074 180.942 68.2074C182.432 68.2074 183.376 67.4699 183.376 66.3029C183.376 65.0943 182.166 64.4668 180.717 63.7431C179.639 63.2039 177.521 62.3137 177.521 60.2676C177.521 58.3617 178.976 57.176 181.302 57.176C182.838 57.176 183.558 57.551 184.595 57.503L184.575 59.8154H184.258C183.844 58.4527 182.605 57.9778 181.249 57.9778C179.732 57.9778 179.165 58.8445 179.165 59.7258C179.165 60.9876 180.401 61.6237 181.801 62.2479C183.376 62.9487 185.085 63.834 185.085 65.8054C185.085 67.6719 183.624 69.0235 180.953 69.0235C179.365 69.0235 178.412 68.5701 177.576 68.4674L177.543 66.0984Z" fill="#9CA3AF"/>
<path d="M209.371 64.0184L206.355 59.1842C205.841 58.3355 205.447 57.8882 204.873 57.6762V57.3627C205.286 57.3627 206.402 57.4122 206.719 57.4122C207.006 57.4122 208.211 57.3627 208.645 57.3627V57.6762C208.26 57.7443 208.079 57.9374 208.079 58.228C208.079 58.4843 208.254 58.8141 208.429 59.1007C208.601 59.3848 210.653 62.7847 210.653 62.7847L212.794 59.1021C213.011 58.7331 213.164 58.367 213.164 58.1256C213.164 57.9059 213.008 57.724 212.643 57.6762V57.3627C213.006 57.3627 213.768 57.4122 214.011 57.4122C214.253 57.4122 215.129 57.3627 215.489 57.3627V57.6548C214.665 57.992 214.151 58.7143 213.652 59.5515L210.91 64.1297L209.371 64.0184ZM211.097 63.5524V67.4143C211.097 67.797 211.389 68.2782 212.049 68.3992V68.7152C211.681 68.7152 210.481 68.6646 210.133 68.6646C209.841 68.6646 208.69 68.7152 208.274 68.7152V68.3992C208.936 68.2782 209.253 67.797 209.253 67.4143V63.7218" fill="#9CA3AF"/>
<path d="M153.338 57.3628H160.409C160.628 57.3628 161.011 57.3376 161.229 57.2429H161.546L161.496 59.5387H161.183C160.914 58.8165 160.634 58.2381 159.266 58.2381H156.196V62.239H158.562C158.907 62.239 159.325 62.2098 159.506 62.1669C160.038 62.0508 160.272 61.755 160.379 61.3019H160.695C160.672 61.6478 160.672 62.4372 160.672 62.6709C160.672 62.9058 160.695 63.7367 160.695 64.1132H160.379C160.227 63.6609 160.02 63.3174 159.506 63.1913C159.325 63.1432 158.899 63.104 158.562 63.104H156.196V67.7972H159.535C160.993 67.7972 161.417 67.1896 161.779 66.3309L162.092 66.4038L161.779 68.762C160.695 68.6659 160.044 68.6659 158.813 68.6659H155.285C154.945 68.6659 153.697 68.7154 153.334 68.7154V68.4007C153.971 68.2794 154.343 67.9648 154.343 67.3549V58.6752C154.343 58.1371 154.053 57.801 153.338 57.6812V57.3628Z" fill="#9CA3AF"/>
<path d="M135.278 58.7369C135.278 58.1548 134.93 57.8341 134.249 57.6874V57.3756C134.628 57.3756 135.856 57.4234 136.213 57.4234C136.513 57.4234 137.774 57.3756 138.158 57.3756V57.6874C137.481 57.8341 137.125 58.1242 137.125 58.7369V67.3563C137.125 67.9384 137.474 68.2553 138.158 68.3992V68.7153C137.775 68.7153 136.566 68.6658 136.213 68.6658C135.908 68.6658 134.628 68.7153 134.248 68.7153V68.3992C134.944 68.2693 135.278 67.965 135.278 67.3563V58.7369Z" fill="#9CA3AF"/>
<path d="M188.919 58.7369C188.919 58.1548 188.568 57.8341 187.888 57.6874V57.3756C188.267 57.3756 189.496 57.4234 189.851 57.4234C190.153 57.4234 191.414 57.3756 191.797 57.3756V57.6874C191.12 57.8341 190.766 58.1242 190.766 58.7369V67.3563C190.766 67.9384 191.115 68.2553 191.797 68.3992V68.7153C191.417 68.7153 190.209 68.6658 189.851 68.6658C189.551 68.6658 188.267 68.7153 187.888 68.7153V68.3992C188.583 68.2693 188.919 67.965 188.919 67.3563V58.7369Z" fill="#9CA3AF"/>
<path d="M198.748 57.4108C194.872 57.4108 194.252 57.3388 193.459 57.2896L193.465 59.6286H193.781C194.071 58.5916 194.648 58.3505 195.397 58.3505H197.828V67.3564C197.828 67.9648 197.495 68.2694 196.797 68.3993V68.7154C197.18 68.7154 198.471 68.6659 198.77 68.6659C199.125 68.6659 200.338 68.7154 200.716 68.7154V68.3993C200.031 68.2554 199.684 67.9385 199.684 67.3564V58.3505H202.096C202.872 58.3505 203.427 58.6145 203.716 59.6286H204.029L204.034 57.2896C203.246 57.3388 202.626 57.4108 198.748 57.4108Z" fill="#9CA3AF"/>
<path d="M167.817 67.3562C167.817 67.9383 168.187 68.2541 168.871 68.3991V68.7152C168.492 68.7152 167.252 68.6657 166.898 68.6657C166.595 68.6657 165.384 68.7152 165.002 68.7152V68.3991C165.637 68.2781 166.011 67.9649 166.011 67.3562V58.6487C166.011 58.1133 165.719 57.776 165.005 57.6547V57.3415C165.384 57.3415 166.583 57.3893 166.922 57.3893C167.477 57.3893 169.054 57.296 169.675 57.296C172.392 57.296 173.905 58.4187 173.905 60.3433C173.905 61.8562 172.779 62.8793 171.045 63.2972C171.045 63.2972 171.44 63.5269 171.835 63.9855C172.314 64.5498 173.608 66.4054 174.145 67.0542C174.681 67.7049 175.367 68.4309 176.102 68.4638V68.7175C175.75 68.7945 175.185 68.8617 174.753 68.8617C173.83 68.8617 173.094 68.5359 172.378 67.6709C171.759 66.918 170.709 65.3559 170.09 64.5664C169.695 64.0638 169.216 63.6711 168.339 63.5269C168.169 63.4981 168.009 63.474 167.817 63.4514V67.3562ZM167.817 62.7289C168.179 62.7781 168.71 62.801 169.236 62.801C171.363 62.801 172.033 61.5784 172.033 60.4963C172.033 58.9657 171.01 58.0171 169.149 58.0171C168.764 58.0171 168.205 58.0652 167.817 58.1381V62.7289Z" fill="#9CA3AF"/>
<path d="M140.883 58.7735C140.635 58.2254 140.255 57.8238 139.607 57.6814V57.3616C140.01 57.3616 141.406 57.4122 141.713 57.4122C141.995 57.4122 143.216 57.3616 143.631 57.3616V57.6722C143.263 57.7429 142.843 57.9462 142.843 58.3227C142.843 58.5916 143.006 58.958 143.319 59.6476L146.246 66.3028L149.016 59.6362C149.235 59.0981 149.393 58.6814 149.393 58.363C149.393 58.0109 149.068 57.7669 148.607 57.6722V57.3616C148.976 57.3616 149.878 57.4122 150.158 57.4122C150.415 57.4122 151.474 57.3616 151.879 57.3616V57.6814C151.187 57.8682 150.766 58.2483 150.378 59.1488L146.301 68.7553H145.378L140.883 58.7735Z" fill="#9CA3AF"/>
<path d="M151.336 28.4767C150.865 27.4372 150.142 26.6795 148.917 26.408V25.803C149.679 25.803 152.21 25.894 152.791 25.894C153.327 25.894 155.778 25.803 156.559 25.803V26.3929C155.866 26.5282 155.07 26.9146 155.07 27.628C155.07 28.1317 155.383 28.828 155.965 30.1323L161.517 42.7449L166.77 30.1109C167.18 29.088 167.486 28.3062 167.486 27.7012C167.486 27.0293 166.864 26.5736 165.993 26.3929V25.803C166.688 25.803 168.378 25.894 168.915 25.894C169.403 25.894 171.41 25.803 172.173 25.803V26.374C170.864 26.729 170.063 27.4804 169.333 29.1864L161.61 47.3963H159.862L151.336 28.4767Z" fill="#9CA3AF"/>
<path d="M76.5759 46.7029C77.5844 46.4729 78.2935 46.0146 78.2935 44.873V28.1786C78.2935 27.0825 77.6337 26.6276 76.5759 26.3525V25.7601C77.1055 25.7601 79.3867 25.8499 79.9415 25.8499C80.581 25.8499 82.9721 25.7601 83.498 25.7601V26.3525C82.4906 26.581 81.7438 27.0381 81.7438 28.1786V35.1524H94.1901V28.1786C94.1901 27.0381 93.5266 26.581 92.4751 26.3525V25.7601C93.0007 25.7601 95.3492 25.8499 95.9873 25.8499C96.5383 25.8499 98.8728 25.7601 99.3932 25.7601V26.3525C98.385 26.581 97.6378 27.0381 97.6378 28.1786V44.873C97.6378 45.9692 98.3392 46.4288 99.3932 46.7029V47.2495C98.8728 47.2495 96.5383 47.2043 95.9873 47.2043C95.3492 47.2043 93.0007 47.2495 92.4751 47.2495V46.7029C93.4762 46.4729 94.1901 46.0146 94.1901 44.873V36.9833H81.7438V44.873C81.7438 46.0146 82.444 46.4288 83.498 46.7029V47.2495C82.9721 47.2495 80.581 47.2043 79.9415 47.2043C79.3867 47.2043 77.1055 47.2495 76.5759 47.2495V46.7029Z" fill="#9CA3AF"/>
<path d="M220.541 46.7029C221.833 46.4729 222.544 45.9603 222.544 44.7821V28.1786C222.544 27.0344 221.843 26.581 220.594 26.3525V25.7601C221.313 25.7601 223.654 25.8499 224.302 25.8499C225.349 25.8499 228.268 25.6213 230.541 25.6213C238.197 25.6213 242.845 29.8937 242.845 36.3901C242.845 42.7045 238.009 47.3837 230.114 47.3837C227.838 47.3837 225.139 47.2043 224.082 47.2043C223.44 47.2043 221.257 47.295 220.541 47.295V46.7029ZM225.992 45.6027C226.772 45.7443 228.212 45.8327 229.349 45.8327C235.78 45.8327 239.128 41.9645 239.128 36.5694C239.128 30.9761 235.596 27.0407 229.582 27.0407C228.354 27.0407 226.819 27.1328 225.992 27.267V45.6027Z" fill="#9CA3AF"/>
<path d="M133.877 44.7214C133.877 45.8278 134.579 46.4288 135.869 46.7028V47.2952C135.15 47.2952 132.808 47.2043 132.135 47.2043C131.566 47.2043 129.268 47.2952 128.55 47.2952V46.7028C129.748 46.4731 130.455 45.877 130.455 44.7214V28.2369C130.455 27.2226 129.906 26.5813 128.553 26.3524V25.76C129.272 25.76 131.542 25.8498 132.179 25.8498C133.232 25.8498 136.217 25.6745 137.395 25.6745C142.544 25.6745 145.41 27.8024 145.41 31.442C145.41 34.3113 143.272 36.2422 139.99 37.0391C139.99 37.0391 140.734 37.4724 141.483 38.3449C142.392 39.4121 144.9 42.9988 145.913 44.2274C146.927 45.4577 148.227 46.8315 149.618 46.8948V47.3787C148.951 47.5223 147.885 47.6451 147.07 47.6451C145.314 47.6451 143.92 47.0312 142.564 45.3893C141.395 43.9648 139.35 40.9364 138.178 39.4413C137.43 38.4887 136.528 37.7465 134.871 37.4724C134.545 37.4167 134.238 37.3737 133.877 37.3334V44.7214ZM133.877 35.9658C134.559 36.0554 135.566 36.1008 136.565 36.1008C140.591 36.1008 141.856 33.7847 141.856 31.7387C141.856 28.833 139.92 27.0407 136.393 27.0407C135.666 27.0407 134.607 27.133 133.877 27.2669V35.9658Z" fill="#9CA3AF"/>
<path d="M201.741 44.7214C201.741 45.8278 202.445 46.4288 203.737 46.7028V47.2952C203.019 47.2952 200.679 47.2043 200.006 47.2043C199.427 47.2043 197.137 47.2952 196.416 47.2952V46.7028C197.612 46.4731 198.32 45.877 198.32 44.7214V28.2369C198.32 27.2226 197.766 26.5813 196.42 26.3524V25.76C197.142 25.76 199.404 25.8498 200.046 25.8498C201.101 25.8498 204.085 25.6745 205.256 25.6745C210.414 25.6745 213.271 27.8024 213.271 31.442C213.271 34.3113 211.138 36.2422 207.853 37.0391C207.853 37.0391 208.601 37.4724 209.344 38.3449C210.262 39.4121 212.769 42.9988 213.779 44.2274C214.796 45.4577 216.097 46.8315 217.48 46.8948V47.3787C216.823 47.5223 215.75 47.6451 214.943 47.6451C213.184 47.6451 211.784 47.0312 210.431 45.3893C209.262 43.9648 207.223 40.9364 206.042 39.4413C205.293 38.4887 204.394 37.7465 202.741 37.4724C202.41 37.4167 202.106 37.3737 201.741 37.3334V44.7214ZM201.741 35.9658C202.431 36.0554 203.432 36.1008 204.432 36.1008C208.46 36.1008 209.721 33.7847 209.721 31.7387C209.721 28.833 207.783 27.0407 204.263 27.0407C203.529 27.0407 202.475 27.133 201.741 27.2669V35.9658Z" fill="#9CA3AF"/>
<path d="M102.668 46.699C104.03 46.3809 104.779 45.4993 105.275 44.3196L112.168 27.7468C112.462 27.0611 112.803 25.6515 112.803 25.6515H114.732C114.732 25.6515 115.077 27.0648 115.363 27.7519L122.648 44.3651C123.168 45.5093 123.73 46.3354 125.178 46.699L125.175 47.251C124.386 47.251 121.934 47.2055 121.377 47.2055C120.822 47.2055 118.48 47.251 117.693 47.251L117.695 46.699C118.756 46.4389 119.091 45.8997 119.091 45.378C119.091 44.9349 118.907 44.4346 118.685 43.9157L117.119 40.3465H109.092L107.658 43.9358C107.497 44.3425 107.306 44.9172 107.306 45.3048C107.306 45.9035 107.62 46.3809 108.823 46.699L108.82 47.251C108.108 47.251 106.226 47.2055 105.785 47.2055L102.667 47.251L102.668 46.699ZM116.392 38.6542L112.965 30.6741L109.772 38.6542H116.392Z" fill="#9CA3AF"/>
<path d="M170.957 46.699C172.319 46.3809 173.069 45.4993 173.564 44.3196L180.459 27.7468C180.752 27.0611 181.097 25.6515 181.097 25.6515H183.026C183.026 25.6515 183.367 27.0648 183.653 27.7519L190.94 44.3651C191.456 45.5093 192.023 46.3354 193.466 46.699L193.463 47.251C192.677 47.251 190.222 47.2055 189.661 47.2055C189.111 47.2055 186.771 47.251 185.982 47.251V46.699C187.049 46.4389 187.379 45.8997 187.379 45.378C187.379 44.9349 187.198 44.4346 186.979 43.9157L185.407 40.3465H177.38L175.945 43.9358C175.784 44.3425 175.595 44.9172 175.595 45.3048C175.595 45.9035 175.908 46.3809 177.111 46.699V47.251C176.396 47.251 174.517 47.2055 174.073 47.2055L170.955 47.251L170.957 46.699ZM184.682 38.6542L181.252 30.6741L178.062 38.6542H184.682Z" fill="#9CA3AF"/>
<path d="M12.9353 19.0593H60.997V37.2009C60.997 45.513 57.9005 63.1406 37.1455 76.2597C37.1455 76.2597 14.6566 66.8749 12.9353 37.2009L12.9353 19.0593Z" fill="#9CA3AF"/>
<path d="M12.8375 19.012H60.9459V37.1661C60.9459 45.4812 57.8457 63.1184 37.0718 76.2464C37.0718 76.2464 14.5614 66.8556 12.8375 37.1661L12.8375 19.012Z" stroke="#9CA3AF" stroke-width="0.306667"/>
<path d="M49.3133 42.3712C49.3133 42.3712 48.8848 43.7362 46.9792 42.3331L40.4361 42.1752C40.4361 42.1752 39.5793 42.4507 39.4628 41.5551C39.4628 41.5551 39.6197 39.7659 39.5401 39.6091C39.5401 39.6091 39.5793 39.1039 38.7197 39.1039C38.7197 39.1039 37.3977 39.2593 37.3585 38.0899C37.3585 38.0899 37.1275 36.8448 38.9561 36.8862C38.9561 36.8862 39.5401 37.1577 39.5793 36.4166C39.5793 36.4166 39.5023 31.3561 39.5401 30.9697C39.5401 30.9697 39.6967 30.5049 38.7993 30.4253C38.7993 30.4253 37.5154 30.6968 37.3585 29.8432C37.3585 29.8432 37.2815 28.5589 38.1397 28.4794C38.1397 28.4794 39.19 28.5589 39.3844 28.2849C39.3844 28.2849 39.6197 28.4388 39.5793 27.5094L39.6197 25.9104C39.6197 25.9104 39.7322 25.4836 40.3957 25.5254C40.3957 25.5254 41.6038 25.6023 41.7618 25.4836C41.7618 25.4836 42.0312 25.1352 42.1107 24.977C42.1107 24.977 42.7351 24.9393 42.8501 25.0957C42.8501 25.0957 43.7854 25.7185 47.329 25.4836C47.329 25.4836 47.8752 25.4836 47.9888 25.6404C47.9888 25.6404 48.6535 26.1452 49.0417 25.6023C49.0417 25.6023 49.6256 25.4836 51.3773 25.5254C51.3773 25.5254 53.2881 26.0291 54.6089 24.9393L55.0385 25.0177C55.0385 25.0177 55.5833 25.9104 55.9726 25.6404C55.9726 25.6404 57.1417 25.5254 57.3349 25.7577C57.3349 25.7577 57.7231 26.3375 57.5296 27.8604C57.5296 27.8604 57.2986 28.5197 58.427 28.5197C58.427 28.5197 59.7138 28.2849 59.5555 29.4908C59.5555 29.4908 59.9056 30.8535 57.766 30.6602C57.766 30.6602 57.4918 31.0492 57.5296 31.3221C57.5296 31.3221 57.4918 35.7561 57.4526 36.2649C57.4526 36.2649 57.4145 36.966 58.3474 36.9254C58.3474 36.9254 59.595 36.8448 59.6365 37.9749C59.6365 37.9749 59.7908 39.4538 57.9973 39.1797C57.9973 39.1797 57.4526 39.2593 57.3716 39.6091L57.2986 41.5551C57.2986 41.5551 57.3349 42.5276 56.2469 42.2928C56.0914 42.2928 50.1727 42.4129 49.6649 42.2576C49.6649 42.2576 49.3892 42.2184 49.3133 42.3712Z" fill="white"/>
<path d="M36.7345 48.875C36.7345 48.875 37.0076 48.7601 37.0846 48.5681C37.0846 48.5681 37.9036 48.4883 38.0184 48.3725L40.5904 48.5681C40.5904 48.5681 43.1207 48.7601 44.2113 47.9783C44.2113 47.9783 44.6032 47.9783 44.876 48.097C44.876 48.097 45.4182 48.2157 45.5736 48.4457L47.055 48.4065C47.055 48.4065 47.9118 48.6817 47.8322 49.2272V49.9257C47.8322 49.9257 47.6757 51.3276 48.065 51.4071H49.1971C49.1971 51.4071 50.1326 51.8342 50.015 52.3782C50.015 52.3782 50.0542 53.1537 49.2378 53.3116C49.2378 53.3116 48.4162 53.5439 48.1468 53.5073C48.1468 53.5073 47.8726 53.8559 47.8322 54.2839L47.7186 59.3823C47.7186 59.3823 47.639 59.9267 48.458 59.8494C48.458 59.8494 49.6623 59.7322 50.015 60.3964C50.015 60.3964 50.327 61.5228 49.7041 61.7173L49.2378 61.9484L48.2227 62.1103C48.2227 62.1103 47.797 62.1455 47.7564 62.8844V64.2442C47.7564 64.2442 47.797 65.1816 47.055 65.1816L45.9644 65.2597C45.9644 65.2597 45.6924 65.4897 45.148 65.3344C45.148 65.3344 38.5265 65.4542 38.2926 65.375L37.5131 65.5326C37.5131 65.5326 36.6572 66.3106 35.9559 65.7245L35.4111 65.2963C35.4111 65.2963 35.0206 65.375 34.8678 65.3344C34.7112 65.2963 27.5449 65.4139 27.5449 65.4139C27.5449 65.4139 26.0258 65.5718 25.9107 65.0629C25.9107 65.0629 25.7163 63.08 25.7933 62.8426C25.7933 62.8426 25.7933 62.2617 25.4432 62.2239C25.4432 62.2239 23.924 62.1455 23.8848 61.9876C23.8848 61.9876 23.0658 61.407 23.2997 60.8243C23.2997 60.8243 23.5739 60.0428 24.3903 59.9656C24.3903 59.9656 25.6364 60.1627 25.6364 59.8117C25.6364 59.8117 25.7163 59.578 25.7163 59.1904C25.7163 59.1904 25.7933 54.5568 25.7541 54.2461C25.7541 54.2461 25.8703 53.6626 25.3636 53.6626C25.3636 53.6626 24.8189 53.8168 24.4699 53.5845C24.4699 53.5845 23.5347 53.6237 23.3401 52.8834C23.3401 52.8834 23.1835 52.4174 23.4159 52.0247C23.4159 52.0247 23.8459 51.1697 25.092 51.4434C25.092 51.4434 25.7933 51.6394 25.8703 51.1354L25.8337 49.2638C25.8337 49.2638 25.6757 48.7601 26.6501 48.4883C26.6501 48.4883 27.8962 48.837 28.2844 48.2157C28.2844 48.2157 28.714 47.3567 29.0604 47.9405C29.0604 47.9405 29.8035 48.6428 31.8283 48.5681C31.8283 48.5681 35.3341 48.2929 35.4111 48.4457C35.4111 48.4457 36.2682 48.5681 36.5006 48.837L36.7345 48.875Z" fill="white"/>
<path d="M26.1471 42.3711C26.1471 42.3711 25.7174 43.7362 23.8092 42.332L17.2673 42.1752C17.2673 42.1752 16.4105 42.4507 16.2929 41.5542C16.2929 41.5542 16.4498 39.7658 16.3687 39.6091C16.3687 39.6091 16.4105 39.1014 15.5523 39.1014C15.5523 39.1014 14.2304 39.2604 14.1923 38.0925C14.1923 38.0925 13.9573 36.8433 15.7874 36.8862C15.7874 36.8862 16.3687 37.1577 16.4105 36.418C16.4105 36.418 16.3321 31.3598 16.3687 30.9685C16.3687 30.9685 16.5279 30.5063 15.6319 30.4265C15.6319 30.4265 14.3452 30.6968 14.1923 29.8407C14.1923 29.8407 14.1127 28.5589 14.9684 28.4794C14.9684 28.4794 16.0201 28.5589 16.2159 28.2897C16.2159 28.2897 16.4498 28.4402 16.4105 27.5054L16.4498 25.9118C16.4498 25.9118 16.5671 25.4836 17.2255 25.5228C17.2255 25.5228 18.4364 25.5998 18.593 25.4836C18.593 25.4836 18.8649 25.1352 18.9394 24.977C18.9394 24.977 19.5663 24.9404 19.6825 25.092C19.6825 25.092 20.6151 25.7185 24.1628 25.4836C24.1628 25.4836 24.7049 25.4836 24.8226 25.6404C24.8226 25.6404 25.4836 26.1452 25.8729 25.5997C25.8729 25.5997 26.4569 25.4836 28.2108 25.5228C28.2108 25.5228 30.1156 26.028 31.4415 24.9404L31.8686 25.0202C31.8686 25.0202 32.4134 25.9118 32.8064 25.6404C32.8064 25.6404 33.9729 25.5228 34.1687 25.7576C34.1687 25.7576 34.5592 26.3412 34.3608 27.8604C34.3608 27.8604 34.1295 28.5208 35.2582 28.5208C35.2582 28.5208 36.5421 28.2897 36.3881 29.4908C36.3881 29.4908 36.7393 30.8535 34.5973 30.6602C34.5973 30.6602 34.323 31.0503 34.3608 31.3221C34.3608 31.3221 34.323 35.7561 34.2849 36.2649C34.2849 36.2649 34.2472 36.9609 35.1812 36.9254C35.1812 36.9254 36.4273 36.8433 36.4651 37.9763C36.4651 37.9763 36.6205 39.4538 34.8308 39.1797C34.8308 39.1797 34.2849 39.2604 34.2054 39.6091L34.1295 41.5542C34.1295 41.5542 34.1687 42.5276 33.0755 42.2953C32.9201 42.2953 27.0042 42.4103 26.4958 42.2576C26.4958 42.2576 26.2241 42.2184 26.1471 42.3711Z" fill="white"/>
<path d="M49.3133 42.3712C49.3133 42.3712 48.8848 43.7362 46.9792 42.3331L40.4361 42.1752C40.4361 42.1752 39.5793 42.4507 39.4628 41.5551C39.4628 41.5551 39.6197 39.7659 39.5401 39.6091C39.5401 39.6091 39.5793 39.1039 38.7197 39.1039C38.7197 39.1039 37.3977 39.2593 37.3585 38.0899C37.3585 38.0899 37.1275 36.8448 38.9561 36.8862C38.9561 36.8862 39.5401 37.1577 39.5793 36.4166C39.5793 36.4166 39.5023 31.3561 39.5401 30.9697C39.5401 30.9697 39.6967 30.5049 38.7993 30.4253C38.7993 30.4253 37.5154 30.6968 37.3585 29.8432C37.3585 29.8432 37.2815 28.5589 38.1397 28.4794C38.1397 28.4794 39.19 28.5589 39.3844 28.2849C39.3844 28.2849 39.6197 28.4388 39.5793 27.5094L39.6197 25.9104C39.6197 25.9104 39.7322 25.4836 40.3957 25.5254C40.3957 25.5254 41.6038 25.6023 41.7618 25.4836C41.7618 25.4836 42.0312 25.1352 42.1107 24.977C42.1107 24.977 42.7351 24.9393 42.8501 25.0957C42.8501 25.0957 43.7854 25.7185 47.329 25.4836C47.329 25.4836 47.8752 25.4836 47.9888 25.6404C47.9888 25.6404 48.6535 26.1452 49.0417 25.6023C49.0417 25.6023 49.6256 25.4836 51.3773 25.5254C51.3773 25.5254 53.2881 26.0291 54.6089 24.9393L55.0385 25.0177C55.0385 25.0177 55.5833 25.9104 55.9726 25.6404C55.9726 25.6404 57.1417 25.5254 57.3349 25.7577C57.3349 25.7577 57.7231 26.3375 57.5296 27.8604C57.5296 27.8604 57.2986 28.5197 58.427 28.5197C58.427 28.5197 59.7138 28.2849 59.5555 29.4908C59.5555 29.4908 59.9056 30.8535 57.766 30.6602C57.766 30.6602 57.4918 31.0492 57.5296 31.3221C57.5296 31.3221 57.4918 35.7561 57.4526 36.2649C57.4526 36.2649 57.4145 36.966 58.3474 36.9254C58.3474 36.9254 59.595 36.8448 59.6365 37.9749C59.6365 37.9749 59.7908 39.4538 57.9973 39.1797C57.9973 39.1797 57.4526 39.2593 57.3716 39.6091L57.2986 41.5551C57.2986 41.5551 57.3349 42.5276 56.2469 42.2928C56.0914 42.2928 50.1727 42.4129 49.6649 42.2576C49.6649 42.2576 49.3892 42.2184 49.3133 42.3712Z" fill="#9CA3AF"/>
<path d="M49.3134 42.3723C49.3134 42.3723 48.8849 43.7375 46.9792 42.3345L40.4348 42.1766C40.4348 42.1766 39.578 42.4518 39.4618 41.5553C39.4618 41.5553 39.6198 39.7658 39.5388 39.6091C39.5388 39.6091 39.578 39.1039 38.7198 39.1039C38.7198 39.1039 37.3967 39.2607 37.3575 38.091C37.3575 38.091 37.1262 36.8459 38.9548 36.8862C38.9548 36.8862 39.5388 37.1579 39.578 36.4179C39.578 36.4179 39.501 31.3572 39.5388 30.9696C39.5388 30.9696 39.6968 30.5037 38.7993 30.4253C38.7993 30.4253 37.514 30.697 37.3575 29.8432C37.3575 29.8432 37.2816 28.5574 38.1384 28.4793C38.1384 28.4793 39.1887 28.5574 39.3836 28.2848C39.3836 28.2848 39.6198 28.4387 39.578 27.5079L39.6198 25.9092C39.6198 25.9092 39.7308 25.4824 40.397 25.5242C40.397 25.5242 41.6038 25.6011 41.7607 25.4824C41.7607 25.4824 42.0301 25.1352 42.1108 24.977C42.1108 24.977 42.734 24.9381 42.8502 25.0948C42.8502 25.0948 43.7843 25.7173 47.3291 25.4824C47.3291 25.4824 47.8752 25.4824 47.9889 25.6389C47.9889 25.6389 48.6536 26.1441 49.0418 25.6011C49.0418 25.6011 49.6257 25.4824 51.3774 25.5242C51.3774 25.5242 53.2881 26.0279 54.6101 24.9381L55.0401 25.015C55.0401 25.015 55.5845 25.9092 55.9727 25.6389C55.9727 25.6389 57.1418 25.5242 57.335 25.755C57.335 25.755 57.7243 26.3374 57.5311 27.8578C57.5311 27.8578 57.2987 28.5197 58.4282 28.5197C58.4282 28.5197 59.7138 28.2848 59.5555 29.4896C59.5555 29.4896 59.9056 30.8535 57.7661 30.659C57.7661 30.659 57.493 31.048 57.5311 31.322C57.5311 31.322 57.493 35.756 57.4538 36.2638C57.4538 36.2638 57.4146 36.9646 58.3487 36.9268C58.3487 36.9268 59.5973 36.8459 59.6377 37.9749C59.6377 37.9749 59.7908 39.4537 57.9986 39.1797C57.9986 39.1797 57.4538 39.2607 57.3731 39.6091L57.2987 41.5553C57.2987 41.5553 57.335 42.529 56.2484 42.2942C56.0929 42.2942 50.1728 42.4129 49.6649 42.2576C49.6649 42.2576 49.3893 42.2195 49.3134 42.3723Z" stroke="#9CA3AF" stroke-width="0.0133333"/>
<path d="M41.9541 26.3387C41.9541 26.3387 42.0311 27.1178 42.0311 27.3149C42.0311 27.508 41.9163 38.5585 41.9163 38.5585C41.9163 38.5585 42.0311 39.4146 41.2943 39.844C41.2943 39.844 41.0971 39.9198 41.0604 39.3754L41.1366 27.7051C41.1366 27.7051 41.2147 26.2614 41.9541 26.3387" fill="white"/>
<path d="M41.9553 26.3374C41.9553 26.3374 42.0311 27.1166 42.0311 27.3136C42.0311 27.5079 41.9175 38.5598 41.9175 38.5598C41.9175 38.5598 42.0311 39.4159 41.2943 39.8439C41.2943 39.8439 41.0971 39.9211 41.0579 39.3767L41.1363 27.7038C41.1363 27.7038 41.2133 26.2601 41.9553 26.3374V26.3374Z" stroke="#9CA3AF" stroke-width="0.016"/>
<path d="M40.67 39.959C40.67 39.959 40.7473 28.9858 40.7107 28.7912C40.67 28.5993 40.7473 28.9503 40.7473 28.9503C40.7473 28.9503 40.6308 27.0407 41.1378 26.2603C41.1378 26.2603 40.9797 25.6024 40.0849 26.4182L40.0457 28.0118C40.0457 28.0118 40.0457 28.9085 39.2293 28.8693C39.2293 28.8693 38.294 28.829 37.8655 29.2572C37.8655 29.2572 37.6319 30.1145 38.5265 29.9606C38.5265 29.9606 39.9294 29.9606 40.0079 30.5401L39.9294 36.4178C39.9294 36.4178 40.2415 37.3952 39.1522 37.3952C39.1522 37.3952 37.824 37.312 37.8655 38.1292C37.8655 38.1292 38.1397 38.8286 39.2685 38.5974C39.2685 38.5974 40.0849 38.7502 40.0457 39.532V41.0097C40.0457 41.0097 39.9672 41.5969 40.7473 41.6335H46.8223C46.8223 41.6335 47.1321 41.6713 47.1321 41.2823C47.1321 41.2823 47.0943 40.9719 46.6277 40.9719L41.566 40.8935C41.566 40.8935 40.7473 41.1676 40.67 39.959Z" fill="white"/>
<path d="M41.839 39.9413C41.839 39.9413 41.6825 40.4856 42.2661 40.3718H46.2778L47.3659 40.608C47.3659 40.608 48.4946 40.3329 47.3659 39.7113C47.3659 39.7113 43.7842 39.7468 43.4733 39.671C43.4733 39.671 42.7327 39.4776 42.5733 39.4387C42.5733 39.4387 42.188 39.2834 41.839 39.9413Z" fill="white"/>
<path d="M41.8378 39.9413C41.8378 39.9413 41.6812 40.4868 42.2649 40.3732H46.2777L47.3661 40.6092C47.3661 40.6092 48.4957 40.3329 47.3661 39.7102C47.3661 39.7102 43.7841 39.7453 43.4718 39.671C43.4718 39.671 42.7315 39.4765 42.5735 39.4373C42.5735 39.4373 42.1868 39.2819 41.8378 39.9413Z" stroke="#9CA3AF" stroke-width="0.016"/>
<path d="M48.4957 40.4868C48.4957 40.4868 47.7563 40.4868 47.7944 41.4617C47.7944 41.4617 47.8725 42.198 48.6512 42.198C48.6512 42.198 49.3499 42.0833 49.2755 41.3052C49.2755 41.3052 48.8458 40.3327 48.4957 40.4868" fill="white"/>
<path d="M49.0417 40.0991C49.0417 40.0991 49.3918 39.7115 49.6268 39.7115C49.6268 39.7115 53.5208 40.0599 54.1781 39.594C54.1781 39.594 54.7657 39.4778 54.9223 39.594C54.9223 39.594 55.5052 40.0599 55.5052 40.3328C55.5052 40.3328 55.4671 40.6849 54.7657 40.4856C54.7657 40.4856 50.3651 40.5285 50.1312 40.5285C50.1312 40.5285 48.9217 40.7988 49.0417 40.0991" fill="white"/>
<path d="M49.0403 40.0991C49.0403 40.0991 49.3904 39.7101 49.6255 39.7101C49.6255 39.7101 53.5206 40.0588 54.1793 39.5925C54.1793 39.5925 54.7667 39.4764 54.9236 39.5925C54.9236 39.5925 55.5061 40.0588 55.5061 40.334C55.5061 40.334 55.4683 40.6864 54.7667 40.4867C54.7667 40.4867 50.3637 40.5296 50.1299 40.5296C50.1299 40.5296 48.9204 40.7999 49.0403 40.0991V40.0991Z" stroke="#9CA3AF" stroke-width="0.016"/>
<path d="M49.5472 41.3608C49.5472 41.3608 49.5472 41.0461 50.0931 41.0461L55.543 41.0083C55.543 41.0083 56.0511 41.2812 56.0511 40.349C56.0511 40.349 56.2506 36.1072 56.2684 31.437C56.2747 30.0465 56.3379 28.588 56.2887 27.2364C56.2887 27.2364 56.1673 26.6517 56.0107 26.533C56.0107 26.533 56.0107 25.9117 56.674 26.1454C56.674 26.1454 57.258 26.1846 57.1025 27.0825L57.1429 28.4387C57.1429 28.4387 57.0255 29.0259 58.0744 28.8683C58.0744 28.8683 59.1247 29.0259 59.1665 29.4124C59.1665 29.4124 59.4773 30.1941 58.2335 30.1146H57.3338C57.3338 30.1146 56.9459 30.3472 57.0622 30.8157L56.9459 36.4594C56.9459 36.4594 56.8675 37.4305 57.8027 37.3939C57.8027 37.3939 58.7746 37.3535 58.9704 37.6656C58.9704 37.6656 59.6365 38.6379 58.1932 38.5598C58.1932 38.5598 57.2972 38.5192 57.1025 38.6771C57.1025 38.6771 56.9459 38.8702 56.8294 40.7014C56.8294 40.7014 56.909 41.7912 56.09 41.6714C56.09 41.6714 50.676 41.7483 50.1704 41.6336C50.1704 41.6336 49.6257 41.7912 49.5472 41.3608" fill="white"/>
<path d="M42.5391 25.985L42.4215 38.48C42.4215 38.48 42.3837 39.0598 43.357 39.1771C43.357 39.1771 44.4854 39.2932 44.7559 39.1771C44.7559 39.1771 45.5005 39.1368 47.405 39.2163C47.405 39.2163 47.875 39.6874 47.9142 39.099C47.9142 39.099 48.2225 28.9856 48.0711 26.8792C48.0711 26.8792 48.0282 25.985 47.3683 25.9458C47.3683 25.9458 44.4084 26.1847 44.1356 25.9458L42.9665 25.6377C42.9665 25.6377 42.4988 25.6755 42.5391 25.985Z" fill="white"/>
<path d="M48.6905 26.6102C48.6905 26.6102 48.5743 32.4864 48.6132 32.6809L48.5362 37.6215L48.3782 39.3352C48.3782 39.3352 48.6132 39.6847 48.8081 39.4525C48.8081 39.4525 50.0542 39.1367 50.8326 39.2594C50.8326 39.2594 53.3276 39.4905 53.8317 39.0989C53.8317 39.0989 54.2222 39.2934 54.3361 38.6707C54.3361 38.6707 54.4901 27.7784 54.4183 27.5839C54.4183 27.5839 54.5686 26.0229 54.4901 25.8713C54.4901 25.8713 54.4561 25.5215 53.7925 25.831C53.7925 25.831 53.8684 26.1442 50.1716 26.0229C50.1716 26.0229 48.7701 25.9849 48.6905 26.6102Z" fill="white"/>
<path d="M54.8845 26.4561L54.8467 38.7503C54.8467 38.7503 55.1576 39.8439 55.6631 39.7292C55.6631 39.7292 55.739 39.4929 55.7768 39.1039L55.9348 27.3895C55.9348 27.3895 55.5429 25.5253 54.8845 26.4561Z" fill="white"/>
<path d="M54.8831 26.4549L54.8453 38.7517C54.8453 38.7517 55.1574 39.8455 55.6629 39.7305C55.6629 39.7305 55.7402 39.4942 55.778 39.1052L55.9346 27.3882C55.9346 27.3882 55.543 25.5241 54.8831 26.4549Z" stroke="#9CA3AF" stroke-width="0.016"/>
<path d="M50.102 30.1374C49.9857 29.8268 50.7641 29.7876 50.7641 29.7876L51.1548 29.8645C51.4279 29.8268 51.7007 29.944 51.7007 29.944C51.9727 30.3711 51.5049 30.6034 51.5049 30.6034L51.3495 31.1111C51.3091 31.5405 51.3495 35.237 51.3495 35.237C51.4279 35.429 51.7388 35.7776 51.7388 35.7776C51.7388 36.1298 51.3091 36.0528 51.3091 36.0528L50.1816 36.092C49.8303 36.0528 49.9465 35.6624 49.9465 35.6624C50.3358 35.4681 50.4535 34.7659 50.4535 34.7659V30.9155L50.102 30.1374Z" fill="#9CA3AF"/>
<path d="M44.8458 33.7568L44.7688 34.9628L45.1163 35.5452C45.3527 35.8558 44.962 36.0921 44.962 36.0921L43.7159 35.9757C43.4846 35.8558 43.7159 35.4679 43.7159 35.4679C44.0282 35.2763 44.0671 34.7671 44.0671 34.7671L44.0282 32.5105L44.0671 30.8763C44.0671 30.6804 43.7563 30.3331 43.7563 30.3331C43.4846 30.2939 43.5616 29.9441 43.5616 29.9441C43.6389 29.7485 44.2984 29.8646 44.2984 29.8646H45.9364C47.4948 30.3712 47.2609 31.4999 47.2609 31.4999C47.3786 32.6266 46.1714 33.0963 46.1714 33.0963L46.0907 33.7191L47.2217 35.506C47.4164 35.6624 47.3786 35.8203 47.3786 35.8203C47.2217 36.2486 46.5974 35.8203 46.5974 35.8203L45.1973 33.6395C45.0796 33.4828 44.8458 33.7568 44.8458 33.7568ZM44.885 30.6804C44.9228 31.5391 44.9228 32.7062 44.9228 32.7062C45.6647 33.2908 46.0907 32.4713 46.0907 32.4713C47.0626 31.5391 46.0907 30.6804 45.9364 30.4493C45.7784 30.2144 45.0001 30.4089 45.0001 30.4089L44.885 30.6804Z" fill="#9CA3AF"/>
<path d="M36.7345 48.875C36.7345 48.875 37.0076 48.7601 37.0846 48.5681C37.0846 48.5681 37.9036 48.4883 38.0184 48.3725L40.5904 48.5681C40.5904 48.5681 43.1207 48.7601 44.2113 47.9783C44.2113 47.9783 44.6032 47.9783 44.876 48.097C44.876 48.097 45.4182 48.2157 45.5736 48.4457L47.055 48.4065C47.055 48.4065 47.9118 48.6817 47.8322 49.2272V49.9257C47.8322 49.9257 47.6757 51.3276 48.065 51.4071H49.1971C49.1971 51.4071 50.1326 51.8342 50.015 52.3782C50.015 52.3782 50.0542 53.1537 49.2378 53.3116C49.2378 53.3116 48.4162 53.5439 48.1468 53.5073C48.1468 53.5073 47.8726 53.8559 47.8322 54.2839L47.7186 59.3823C47.7186 59.3823 47.639 59.9267 48.458 59.8494C48.458 59.8494 49.6623 59.7322 50.015 60.3964C50.015 60.3964 50.327 61.5228 49.7041 61.7173L49.2378 61.9484L48.2227 62.1103C48.2227 62.1103 47.797 62.1455 47.7564 62.8844V64.2442C47.7564 64.2442 47.797 65.1816 47.055 65.1816L45.9644 65.2597C45.9644 65.2597 45.6924 65.4897 45.148 65.3344C45.148 65.3344 38.5265 65.4542 38.2926 65.375L37.5131 65.5326C37.5131 65.5326 36.6572 66.3106 35.9559 65.7245L35.4111 65.2963C35.4111 65.2963 35.0206 65.375 34.8678 65.3344C34.7112 65.2963 27.5449 65.4139 27.5449 65.4139C27.5449 65.4139 26.0258 65.5718 25.9107 65.0629C25.9107 65.0629 25.7163 63.08 25.7933 62.8426C25.7933 62.8426 25.7933 62.2617 25.4432 62.2239C25.4432 62.2239 23.924 62.1455 23.8848 61.9876C23.8848 61.9876 23.0658 61.407 23.2997 60.8243C23.2997 60.8243 23.5739 60.0428 24.3903 59.9656C24.3903 59.9656 25.6364 60.1627 25.6364 59.8117C25.6364 59.8117 25.7163 59.578 25.7163 59.1904C25.7163 59.1904 25.7933 54.5568 25.7541 54.2461C25.7541 54.2461 25.8703 53.6626 25.3636 53.6626C25.3636 53.6626 24.8189 53.8168 24.4699 53.5845C24.4699 53.5845 23.5347 53.6237 23.3401 52.8834C23.3401 52.8834 23.1835 52.4174 23.4159 52.0247C23.4159 52.0247 23.8459 51.1697 25.092 51.4434C25.092 51.4434 25.7933 51.6394 25.8703 51.1354L25.8337 49.2638C25.8337 49.2638 25.6757 48.7601 26.6501 48.4883C26.6501 48.4883 27.8962 48.837 28.2844 48.2157C28.2844 48.2157 28.714 47.3567 29.0604 47.9405C29.0604 47.9405 29.8035 48.6428 31.8283 48.5681C31.8283 48.5681 35.3341 48.2929 35.4111 48.4457C35.4111 48.4457 36.2682 48.5681 36.5006 48.837L36.7345 48.875Z" fill="#9CA3AF"/>
<path d="M36.7344 48.827C36.7344 48.827 37.0046 48.7134 37.0845 48.5189C37.0845 48.5189 37.9021 48.4394 38.0183 48.323L40.5892 48.5189C40.5892 48.5189 43.1206 48.7134 44.2112 47.9317C44.2112 47.9317 44.6031 47.9317 44.8759 48.0504C44.8759 48.0504 45.4195 48.1676 45.5724 48.3976L47.0561 48.3596C47.0561 48.3596 47.9117 48.635 47.8322 49.1791V49.8791C47.8322 49.8791 47.6767 51.2807 48.066 51.3579H49.197C49.197 51.3579 50.1311 51.7873 50.016 52.3316C50.016 52.3316 50.0553 53.1071 49.2377 53.265C49.2377 53.265 48.4176 53.4972 48.1482 53.4592C48.1482 53.4592 47.8739 53.809 47.8322 54.2372L47.7171 59.3369C47.7171 59.3369 47.6389 59.8786 48.4565 59.8028C48.4565 59.8028 49.6622 59.6881 50.016 60.3483C50.016 60.3483 50.3283 61.4762 49.7052 61.6718L49.2377 61.9044L48.2226 62.0623C48.2226 62.0623 47.7955 62.1 47.7577 62.8363V64.2016C47.7577 64.2016 47.7955 65.1347 47.0561 65.1347L45.9654 65.2131C45.9654 65.2131 45.6924 65.4456 45.1479 65.2903C45.1479 65.2903 38.5264 65.4076 38.2925 65.3269L37.5116 65.4845C37.5116 65.4845 36.6571 66.2637 35.9558 65.6765L35.4099 65.2483C35.4099 65.2483 35.0206 65.3269 34.8665 65.2903C34.7097 65.2483 27.5449 65.3684 27.5449 65.3684C27.5449 65.3684 26.0245 65.5252 25.9083 65.0174C25.9083 65.0174 25.7148 63.032 25.7918 62.7971C25.7918 62.7971 25.7918 62.2162 25.4406 62.177C25.4406 62.177 23.9228 62.1 23.8824 61.9433C23.8824 61.9433 23.0646 61.3589 23.2982 60.7765C23.2982 60.7765 23.5724 59.9962 24.3903 59.9175C24.3903 59.9175 25.6352 60.1175 25.6352 59.7622C25.6352 59.7622 25.7148 59.5299 25.7148 59.1435C25.7148 59.1435 25.7918 54.5101 25.754 54.1992C25.754 54.1992 25.8702 53.6134 25.3621 53.6134C25.3621 53.6134 24.8177 53.7687 24.4673 53.5376C24.4673 53.5376 23.5335 53.5756 23.3388 52.8368C23.3388 52.8368 23.1808 52.3708 23.4158 51.9792C23.4158 51.9792 23.8432 51.1228 25.0905 51.3957C25.0905 51.3957 25.7918 51.5928 25.8702 51.0876L25.831 49.2171C25.831 49.2171 25.6744 48.7134 26.6489 48.4394C26.6489 48.4394 27.895 48.7904 28.2843 48.1676C28.2843 48.1676 28.7114 47.3104 29.0603 47.8913C29.0603 47.8913 29.8035 48.5936 31.8267 48.5189C31.8267 48.5189 35.334 48.2435 35.4099 48.3976C35.4099 48.3976 36.2681 48.5189 36.5005 48.7904L36.7344 48.827Z" stroke="#9CA3AF" stroke-width="0.0133333"/>
<path d="M37.7467 64.1687C37.7467 64.1687 38.2156 63.9324 38.5279 64.0134C38.8399 64.0906 43.3949 63.9753 43.3949 63.9753C43.3949 63.9753 45.3804 64.1295 45.6938 63.854L46.1576 63.7001C46.1576 63.7001 46.3534 63.4679 46.3534 63.1584C46.3534 62.844 46.3926 61.7931 46.3926 61.7931L46.5114 61.4069C46.5114 61.4069 46.471 61.0176 46.5114 50.6253C46.5114 50.6253 46.6643 49.8121 46.1576 49.3032C46.1576 49.3032 46.1576 48.9948 46.313 49.0317C46.471 49.0735 46.3926 49.0735 46.3926 49.0735C46.3926 49.0735 47.0928 48.875 47.2079 49.1476C47.2079 49.1476 47.5225 50.0784 47.2482 50.6253C47.2482 50.6253 47.1698 51.7555 47.7589 51.7555C47.7589 51.7555 47.9888 51.9906 48.4565 51.8719C48.4565 51.8719 49.4688 51.9906 49.4688 52.2987C49.4688 52.2987 49.4688 53.002 48.7674 52.8848L47.8311 52.9603C47.8311 52.9603 47.2079 53.0804 47.2874 53.817C47.367 54.5567 47.2482 59.8494 47.2482 59.8494C47.2482 59.8494 47.2482 60.4747 48.2241 60.4355C48.2241 60.4355 49.4298 60.3952 49.4298 60.7436C49.4298 60.7436 49.7404 61.5216 48.8851 61.5622C48.8851 61.5622 47.2482 61.5216 47.367 61.9876C47.367 61.9876 47.2482 63.08 47.1698 63.2719C47.1698 63.2719 47.3292 64.1687 47.1309 64.3254C47.1309 64.3254 47.0158 64.8292 45.9655 64.7522C45.9655 64.7522 39.2684 64.7142 38.2156 64.7914C38.2156 64.7914 37.5912 64.7142 37.7467 64.1687" fill="white"/>
<path d="M36.5423 63.4298C36.5423 63.4298 37.2033 63.5448 37.2033 64.1687C37.2033 64.79 37.2425 65.1409 36.8509 65.2182C36.4627 65.2963 36.0356 65.1816 35.9205 64.6761C35.8006 64.1687 35.995 63.5448 36.5423 63.4298Z" fill="white"/>
<path d="M37.3195 63.1192C37.3195 63.1192 38.0197 62.6492 38.2925 62.7304C38.2925 62.7304 41.8353 62.9613 42.9285 62.7705C44.0177 62.5748 43.3556 62.7304 43.3556 62.7304C43.3556 62.7304 44.2911 62.7304 44.5614 62.3777C44.5614 62.3777 44.8356 62.3031 44.991 62.5748L45.5724 63.1998C45.5724 63.1998 45.6165 63.5851 44.9518 63.546C44.9518 63.546 38.6023 63.546 38.4102 63.5851C38.4102 63.5851 37.2033 63.7771 37.3195 63.1192" fill="white"/>
<path d="M37.3182 63.1192C37.3182 63.1192 38.0184 62.6492 38.2912 62.729C38.2912 62.729 41.8365 62.9613 42.9283 62.7705C44.0193 62.5737 43.3554 62.729 43.3554 62.729C43.3554 62.729 44.2921 62.729 44.5626 62.3752C44.5626 62.3752 44.8357 62.3022 44.9923 62.5737L45.5737 63.1998C45.5737 63.1998 45.6166 63.5866 44.953 63.546C44.953 63.546 38.6035 63.546 38.4088 63.5866C38.4088 63.5866 37.202 63.7785 37.3182 63.1192V63.1192Z" stroke="#9CA3AF" stroke-width="0.016"/>
<path d="M28.0909 49.3044C28.0909 49.3044 28.364 49.3044 28.3245 49.7718L28.2452 61.5228C28.2452 61.5228 28.364 62.3031 27.7016 62.8071C27.7016 62.8071 27.3489 63.2339 27.3489 62.5749L27.508 50.5887C27.508 50.5887 27.545 49.6931 28.0909 49.3044" fill="white"/>
<path d="M28.0909 49.3033C28.0909 49.3033 28.364 49.3033 28.327 49.7704L28.2452 61.5242C28.2452 61.5242 28.364 62.3046 27.7004 62.8086C27.7004 62.8086 27.3463 63.2354 27.3463 62.576L27.5058 50.5887C27.5058 50.5887 27.5435 49.692 28.0909 49.3033Z" stroke="#9CA3AF" stroke-width="0.016"/>
<path d="M27.4678 49.3826C27.4678 49.3826 27.0001 50.2402 27.0393 50.4361L27.0001 53.04C27.0001 53.04 26.9609 54.7133 27.0001 54.909C27.0393 55.1024 26.9609 60.0063 26.9609 60.0063C26.9609 60.0063 26.9219 60.938 26.9609 61.2512V63.3516C26.9609 63.3516 26.8827 64.2873 27.5829 64.0499C27.5829 64.0499 34.438 63.896 34.8677 64.0144C34.8677 64.0144 35.4883 64.1297 35.2581 64.4414C35.2581 64.4414 35.2581 64.7158 34.8259 64.636C34.8259 64.636 31.5943 64.9452 28.6747 64.8305C28.6747 64.8305 26.7273 64.9452 26.6085 64.7158C26.6085 64.7158 26.2987 64.6763 26.2987 63.5461C26.2987 63.5461 26.2987 62.4981 26.2229 62.3033C26.2229 62.3033 26.2987 61.7515 25.3257 61.6391C25.3257 61.6391 23.9631 61.8739 23.9239 61.057C23.9239 61.057 24.1174 60.4734 25.4431 60.5492C25.4431 60.5492 26.4164 60.7057 26.2229 59.9254L26.338 54.1701C26.338 54.1701 26.4579 53.1538 25.7932 53.1132C25.7932 53.1132 25.1726 53.0817 24.9742 53.1538C24.9742 53.1538 23.8458 53.1538 23.9239 52.4971C23.9239 52.4971 24.3132 51.7948 25.4431 51.9513C25.4431 51.9513 26.2987 52.1058 26.338 51.1355C26.338 51.1355 26.2987 49.1492 26.7651 49.0734C26.7651 49.0734 27.7409 49.1086 27.4678 49.3826" fill="white"/>
<path d="M28.6344 62.2616C28.6344 62.2616 29.1803 62.8426 30.0778 62.8085L35.3693 62.8843C35.3693 62.8843 35.9573 62.9258 35.9203 63.2339C35.9203 63.2339 35.837 63.7001 35.1394 63.5448L28.7518 63.4678L28.0493 63.5105C28.0493 63.5105 27.5816 63.4298 28.3247 62.5356L28.6344 62.2616Z" fill="white"/>
<path d="M28.633 62.2605C28.633 62.2605 29.1792 62.8426 30.0778 62.8071L35.3707 62.8843C35.3707 62.8843 35.957 62.9247 35.9218 63.2339C35.9218 63.2339 35.8396 63.7013 35.142 63.5474L28.7507 63.4702L28.0479 63.5105C28.0479 63.5105 27.5816 63.4313 28.3233 62.5345L28.633 62.2605Z" stroke="#9CA3AF" stroke-width="0.016"/>
<path d="M44.9911 61.7527C44.9911 61.7527 45.4586 62.6494 45.6924 62.7718C45.6924 62.7718 46.121 63.2733 46.0047 62.3791L46.0817 51.171C46.0817 51.171 45.9641 50.7808 46.0817 50.1607L45.6154 49.3043C45.6154 49.3043 45.1073 48.9155 45.1073 49.5368L45.0303 61.4849L44.9911 61.7527Z" fill="white"/>
<path d="M44.9899 61.7541C44.9899 61.7541 45.4588 62.6494 45.6938 62.7732C45.6938 62.7732 46.1223 63.2758 46.0061 62.3793L46.0831 51.1684C46.0831 51.1684 45.9654 50.7808 46.0831 50.1606L45.6156 49.3034C45.6156 49.3034 45.1061 48.9155 45.1061 49.5368L45.0291 61.486L44.9899 61.7541Z" stroke="#9CA3AF" stroke-width="0.016"/>
<path d="M36.3464 56.4245C36.3464 56.4245 36.3857 57.3553 36.2669 58.2483C36.2036 58.742 36.4246 61.0152 36.2277 62.1809C36.2277 62.1809 36.1922 62.571 35.3706 62.2226C35.3706 62.2226 30.3874 62.3373 30.2319 62.1809C30.2319 62.1809 28.8696 62.2226 28.752 61.5204C28.752 61.5204 28.9466 56.1897 28.8304 55.9914C28.8304 55.9914 28.752 53.074 28.8304 52.8026C28.8304 52.8026 28.9466 50.1178 28.8696 49.8068C28.8696 49.8068 28.9088 49.1841 28.7912 48.8712C28.7912 48.8712 28.7912 48.4822 29.4547 48.7147C29.4547 48.7147 29.6849 49.1441 30.9713 48.9533C30.9713 48.9533 31.9077 49.1075 32.804 48.9899C32.804 48.9899 34.788 48.8346 35.2962 48.9899C35.2962 48.9899 36.0759 48.8346 36.3058 49.6933L36.2669 52.1041L36.4993 52.8821L36.7736 52.6887L36.8886 52.1041L36.9278 49.5354C36.9278 49.5354 37.0833 49.0668 37.7088 48.9899C37.7088 48.9899 38.6821 48.8712 38.8401 48.9533C38.9955 49.0279 41.0947 49.1441 41.6823 49.0279C42.2649 48.9115 42.38 49.4167 44.1356 48.5239C44.1356 48.5239 44.6031 48.5631 44.6031 48.8712C44.6031 48.8712 44.4439 52.1839 44.6031 52.8026C44.6031 52.8026 44.6031 58.8722 44.4817 59.3004L44.5613 61.2461C44.5613 61.2461 44.6386 62.1028 43.2785 62.1809C43.2785 62.1809 44.1356 62.2981 38.7579 62.1428C38.7579 62.1428 37.9023 62.1028 36.9682 62.5296C36.9682 62.5296 36.7736 62.4915 36.7736 61.9864C36.7736 61.9864 36.9278 60.1591 36.7736 58.3656L36.698 56.3819L36.3464 56.4245Z" fill="white"/>
<path d="M32.8404 53.6638C32.8404 53.6638 32.958 56.5423 32.8404 56.931L32.8037 57.5551C32.8037 57.5551 32.958 57.9805 33.1919 58.1384C33.1919 58.1384 33.3877 58.6813 32.9188 58.6435C32.9188 58.6435 31.9469 58.5652 31.7131 58.6021C31.7131 58.6021 31.1657 58.6021 31.7131 57.9058C31.7131 57.9058 31.9077 57.6292 31.8674 56.931C31.8674 56.931 31.8674 53.6638 31.9469 53.4707C31.9469 53.4707 32.0239 53.0399 31.7509 52.9226L31.282 52.963L30.7006 53.5073C30.7006 53.5073 30.5818 54.0934 30.309 53.4707V53.1563L30.6616 52.223L30.8955 52.1824C30.8955 52.1824 31.2442 52.4163 31.5551 52.497H33.3877L34.0487 52.1824C34.0487 52.1824 34.3203 52.223 34.2459 52.5728C34.2459 52.5728 34.3596 53.4707 33.854 53.5845C33.854 53.5845 33.542 53.4707 33.3877 53.0399C33.3877 53.0399 32.881 52.7699 32.8404 53.6638" fill="#9CA3AF"/>
<path d="M41.4459 52.6132C41.4459 52.6132 39.9685 52.4956 39.9319 54.0906C39.9319 54.0906 39.7713 55.183 41.4093 55.8841C41.4093 55.8841 42.6176 56.465 42.5366 57.2039C42.5366 57.2039 42.3811 58.5274 41.0958 57.8667C41.0958 57.8667 40.4741 57.5534 40.5156 57.2039C40.5156 57.2039 40.3175 56.7745 40.0847 56.8538C40.0847 56.8538 39.8105 56.9299 39.9319 58.2153C39.9319 58.2153 39.9319 58.7216 40.5156 58.2153L40.8227 58.2949C40.8227 58.2949 41.8756 59.151 42.7693 58.0981C42.7693 58.0981 43.7449 57.2039 43.0421 56.1152C43.0421 56.1152 42.5366 55.3397 41.642 54.9496C41.642 54.9496 40.7849 54.5568 40.5917 53.8961C40.5917 53.8961 40.8645 52.7267 41.9137 53.3494C41.9137 53.3494 42.3041 53.8168 42.5366 53.8961C42.5366 53.8961 42.8489 53.8961 42.7693 53.1927L42.6957 52.6132C42.6957 52.6132 42.6176 52.1798 42.0702 52.6132C42.0702 52.6132 41.5636 52.8051 41.4459 52.6132" fill="#9CA3AF"/>
<path d="M36.6964 51.7936C36.9681 51.9918 37.0073 52.3797 37.0073 52.3797C37.7859 54.4407 38.4495 57.4398 38.4495 57.4398C38.6427 57.8251 38.9942 58.1384 38.9942 58.1384C39.6564 58.3706 38.9942 58.564 38.9942 58.564C38.7211 58.6827 37.8277 58.5285 37.8277 58.5285C37.3574 58.4453 37.5509 58.2937 37.5509 58.2937C37.7479 58.0992 37.5913 57.3186 37.5913 57.3186C37.5509 57.0105 37.2034 56.503 37.2034 56.503C37.048 56.4244 36.7749 56.7745 36.7749 56.7745C36.7749 56.7745 36.3478 56.931 36.306 56.7745C36.2667 56.6163 35.9951 56.469 35.9951 56.469C35.5273 56.469 35.3341 57.6292 35.3341 57.6292C35.6058 58.6032 35.3341 58.4453 35.3341 58.4453C35.1017 58.7599 34.3597 58.5285 34.3597 58.5285C34.0096 58.4453 34.2457 58.1738 34.2457 58.1738C34.6717 58.0992 34.7879 57.6292 34.7879 57.6292C34.984 57.3577 36.2275 52.3002 36.2275 52.3002C36.3478 52.0651 36.4233 51.5991 36.6964 51.7936ZM36.0761 54.3611C36.0354 54.5568 35.7612 55.6466 35.7612 55.6466L35.9951 56.0394C35.9951 56.0394 36.6194 56.0748 36.8519 56.0748C37.0832 56.0748 37.125 55.884 37.125 55.6855C37.125 55.4927 36.6964 54.3257 36.6964 54.3257L36.4995 54.092L36.0761 54.3611Z" fill="#9CA3AF"/>
<path d="M26.1471 42.3711C26.1471 42.3711 25.7174 43.7362 23.8092 42.332L17.2673 42.1752C17.2673 42.1752 16.4105 42.4507 16.2929 41.5542C16.2929 41.5542 16.4498 39.7658 16.3687 39.6091C16.3687 39.6091 16.4105 39.1014 15.5523 39.1014C15.5523 39.1014 14.2304 39.2604 14.1923 38.0925C14.1923 38.0925 13.9573 36.8433 15.7874 36.8862C15.7874 36.8862 16.3687 37.1577 16.4105 36.418C16.4105 36.418 16.3321 31.3598 16.3687 30.9685C16.3687 30.9685 16.5279 30.5063 15.6319 30.4265C15.6319 30.4265 14.3452 30.6968 14.1923 29.8407C14.1923 29.8407 14.1127 28.5589 14.9684 28.4794C14.9684 28.4794 16.0201 28.5589 16.2159 28.2897C16.2159 28.2897 16.4498 28.4402 16.4105 27.5054L16.4498 25.9118C16.4498 25.9118 16.5671 25.4836 17.2255 25.5228C17.2255 25.5228 18.4364 25.5998 18.593 25.4836C18.593 25.4836 18.8649 25.1352 18.9394 24.977C18.9394 24.977 19.5663 24.9404 19.6825 25.092C19.6825 25.092 20.6151 25.7185 24.1628 25.4836C24.1628 25.4836 24.7049 25.4836 24.8226 25.6404C24.8226 25.6404 25.4836 26.1452 25.8729 25.5997C25.8729 25.5997 26.4569 25.4836 28.2108 25.5228C28.2108 25.5228 30.1156 26.028 31.4415 24.9404L31.8686 25.0202C31.8686 25.0202 32.4134 25.9118 32.8064 25.6404C32.8064 25.6404 33.9729 25.5228 34.1687 25.7576C34.1687 25.7576 34.5592 26.3412 34.3608 27.8604C34.3608 27.8604 34.1295 28.5208 35.2582 28.5208C35.2582 28.5208 36.5421 28.2897 36.3881 29.4908C36.3881 29.4908 36.7393 30.8535 34.5973 30.6602C34.5973 30.6602 34.323 31.0503 34.3608 31.3221C34.3608 31.3221 34.323 35.7561 34.2849 36.2649C34.2849 36.2649 34.2472 36.9609 35.1812 36.9254C35.1812 36.9254 36.4273 36.8433 36.4651 37.9763C36.4651 37.9763 36.6205 39.4538 34.8308 39.1797C34.8308 39.1797 34.2849 39.2604 34.2054 39.6091L34.1295 41.5542C34.1295 41.5542 34.1687 42.5276 33.0755 42.2953C32.9201 42.2953 27.0042 42.4103 26.4958 42.2576C26.4958 42.2576 26.2241 42.2184 26.1471 42.3711Z" fill="#9CA3AF"/>
<path d="M26.1471 42.3723C26.1471 42.3723 25.7174 43.7376 23.8092 42.3331L17.2661 42.1766C17.2661 42.1766 16.409 42.4518 16.2917 41.5542C16.2917 41.5542 16.4497 39.7658 16.3687 39.6091C16.3687 39.6091 16.409 39.1028 15.5508 39.1028C15.5508 39.1028 14.2289 39.2618 14.1911 38.0936C14.1911 38.0936 13.9572 36.8433 15.7873 36.8862C15.7873 36.8862 16.3687 37.158 16.409 36.4191C16.409 36.4191 16.3306 31.3587 16.3687 30.9685C16.3687 30.9685 16.5278 30.5048 15.6307 30.4265C15.6307 30.4265 14.344 30.6971 14.1911 29.8395C14.1911 29.8395 14.1115 28.5574 14.9683 28.4793C14.9683 28.4793 16.0186 28.5574 16.2158 28.2874C16.2158 28.2874 16.4497 28.4402 16.409 27.5054L16.4497 25.9104C16.4497 25.9104 16.5659 25.4825 17.2255 25.5228C17.2255 25.5228 18.4352 25.5986 18.5918 25.4825C18.5918 25.4825 18.8649 25.1352 18.9393 24.977C18.9393 24.977 19.5648 24.9393 19.6824 25.092C19.6824 25.092 20.6139 25.7173 24.1627 25.4825C24.1627 25.4825 24.7049 25.4825 24.8225 25.6389C24.8225 25.6389 25.4835 26.1441 25.8728 25.5986C25.8728 25.5986 26.4579 25.4825 28.2107 25.5228C28.2107 25.5228 30.1169 26.0254 31.4414 24.9393L31.8697 25.0188C31.8697 25.0188 32.4144 25.9104 32.8063 25.6389C32.8063 25.6389 33.9729 25.5228 34.1712 25.7551C34.1712 25.7551 34.5591 26.34 34.3622 27.8578C34.3622 27.8578 34.1294 28.5208 35.2582 28.5208C35.2582 28.5208 36.5446 28.2874 36.388 29.4897C36.388 29.4897 36.7393 30.8535 34.5983 30.659C34.5983 30.659 34.3229 31.0492 34.3622 31.3221C34.3622 31.3221 34.3229 35.756 34.2863 36.2638C34.2863 36.2638 34.2471 36.962 35.1812 36.9268C35.1812 36.9268 36.4273 36.8433 36.4665 37.9775C36.4665 37.9775 36.6205 39.4538 34.8308 39.1797C34.8308 39.1797 34.2863 39.2618 34.2067 39.6091L34.1294 41.5542C34.1294 41.5542 34.1712 42.529 33.0769 42.2965C32.9214 42.2965 27.0041 42.4103 26.4957 42.2576C26.4957 42.2576 26.2241 42.2195 26.1471 42.3723Z" stroke="#9CA3AF" stroke-width="0.0133333"/>
<path d="M18.7864 26.3411C18.7864 26.3411 18.8649 27.1178 18.8649 27.3123C18.8649 27.5068 18.7461 38.5584 18.7461 38.5584C18.7461 38.5584 18.8649 39.4171 18.1232 39.8428C18.1232 39.8428 17.9296 39.9223 17.8893 39.3779L17.9689 27.7039C17.9689 27.7039 18.0459 26.2628 18.7864 26.3411" fill="white"/>
<path d="M18.7877 26.3399C18.7877 26.3399 18.8659 27.1165 18.8659 27.311C18.8659 27.5055 18.7471 38.5583 18.7471 38.5583C18.7471 38.5583 18.8659 39.417 18.123 39.8452C18.123 39.8452 17.9295 39.9236 17.8892 39.3793L17.9662 27.7038C17.9662 27.7038 18.0446 26.2627 18.7877 26.3399V26.3399Z" stroke="#9CA3AF" stroke-width="0.016"/>
<path d="M17.5011 39.959C17.5011 39.959 17.577 28.9858 17.5404 28.7898C17.5011 28.5979 17.577 28.9477 17.577 28.9477C17.577 28.9477 17.4634 27.0432 17.9686 26.2629C17.9686 26.2629 17.812 25.601 16.916 26.4168L16.8805 28.0132C16.8805 28.0132 16.8805 28.9085 16.0604 28.8693C16.0604 28.8693 15.1252 28.829 14.6955 29.2598C14.6955 29.2598 14.4628 30.1145 15.3565 29.9606C15.3565 29.9606 16.7606 29.9606 16.8376 30.5401L16.7606 36.4178C16.7606 36.4178 17.0726 37.3903 15.9808 37.3903C15.9808 37.3903 14.6574 37.3157 14.6955 38.1329C14.6955 38.1329 14.9683 38.8337 16.0996 38.5989C16.0996 38.5989 16.916 38.7553 16.8805 39.5297V41.0122C16.8805 41.0122 16.7984 41.5969 17.577 41.6324H23.6535C23.6535 41.6324 23.9646 41.6713 23.9646 41.2811C23.9646 41.2811 23.9251 40.9742 23.4602 40.9742L18.3997 40.8935C18.3997 40.8935 17.577 41.1664 17.5011 39.959Z" fill="white"/>
<path d="M18.5526 40.0385C18.5526 40.0385 18.3983 40.5854 18.9797 40.4653H22.9911L24.0817 40.6978C24.0817 40.6978 25.2142 40.4261 24.0817 39.8022C24.0817 39.8022 20.4989 39.844 20.1866 39.7656C20.1866 39.7656 19.4486 39.5714 19.292 39.5319C19.292 39.5319 18.9016 39.378 18.5526 40.0385Z" fill="white"/>
<path d="M18.5514 40.0372C18.5514 40.0372 18.3971 40.5865 18.9785 40.464H22.9913L24.0834 40.6989C24.0834 40.6989 25.2155 40.4274 24.0834 39.8024C24.0834 39.8024 20.4988 39.8439 20.1868 39.7632C20.1868 39.7632 19.4474 39.5699 19.2908 39.5321C19.2908 39.5321 18.9001 39.3768 18.5514 40.0372Z" stroke="#9CA3AF" stroke-width="0.016"/>
<path d="M25.2132 40.5853C25.2132 40.5853 24.4715 40.5853 24.5104 41.5527C24.5104 41.5527 24.5888 42.2964 25.366 42.2964C25.366 42.2964 26.0676 42.1754 25.9918 41.4011C25.9918 41.4011 25.5618 40.4263 25.2132 40.5853" fill="white"/>
<path d="M25.7565 40.1926C25.7565 40.1926 26.1054 39.8036 26.3416 39.8036C26.3416 39.8036 30.2345 40.1548 30.8966 39.6886C30.8966 39.6886 31.4828 39.5724 31.636 39.6886C31.636 39.6886 32.22 40.1548 32.22 40.4263C32.22 40.4263 32.1819 40.7798 31.4828 40.5853C31.4828 40.5853 27.0784 40.6219 26.8471 40.6219C26.8471 40.6219 25.6388 40.8934 25.7565 40.1926" fill="white"/>
<path d="M25.7554 40.1926C25.7554 40.1926 26.1055 39.8024 26.3405 39.8024C26.3405 39.8024 30.2345 40.1548 30.8966 39.6886C30.8966 39.6886 31.4843 39.5713 31.6372 39.6886C31.6372 39.6886 32.2211 40.1548 32.2211 40.4274C32.2211 40.4274 32.1834 40.7812 31.4843 40.5853C31.4843 40.5853 27.0799 40.6233 26.846 40.6233C26.846 40.6233 25.6377 40.8948 25.7554 40.1926V40.1926Z" stroke="#9CA3AF" stroke-width="0.016"/>
<path d="M26.3798 41.3607C26.3798 41.3607 26.3798 41.0512 26.9219 41.0512L32.3781 41.0109C32.3781 41.0109 32.8822 41.2798 32.8822 40.349C32.8822 40.349 33.082 36.1058 33.0997 31.4356C33.1072 30.0465 33.1679 28.588 33.1149 27.2364C33.1149 27.2364 32.9987 26.6543 32.8432 26.5342C32.8432 26.5342 32.8432 25.9117 33.5079 26.1477C33.5079 26.1477 34.0879 26.1846 33.9336 27.0785L33.9717 28.4412C33.9717 28.4412 33.8555 29.0248 34.9069 28.8694C34.9069 28.8694 35.9572 29.0248 35.995 29.4138C35.995 29.4138 36.3099 30.1941 35.0649 30.1146H34.1701C34.1701 30.1146 33.7796 30.3472 33.8958 30.8157L33.7796 36.4568C33.7796 36.4568 33.6986 37.4293 34.6364 37.3939C34.6364 37.3939 35.6097 37.3535 35.8017 37.6642C35.8017 37.6642 36.4664 38.6379 35.0245 38.5598C35.0245 38.5598 34.1283 38.5192 33.9336 38.6745C33.9336 38.6745 33.7796 38.8727 33.6619 40.6991C33.6619 40.6991 33.739 41.789 32.9214 41.6714C32.9214 41.6714 27.5082 41.7472 27.0041 41.6322C27.0041 41.6322 26.4568 41.789 26.3798 41.3607" fill="white"/>
<path d="M19.3679 25.9875L19.2542 38.48C19.2542 38.48 19.215 39.0598 20.188 39.1771C20.188 39.1771 21.3193 39.2946 21.5898 39.1771C21.5898 39.1771 22.3278 39.1393 24.2375 39.2177C24.2375 39.2177 24.7052 39.6822 24.743 39.1015C24.743 39.1015 25.0553 28.9818 24.8996 26.8817C24.8996 26.8817 24.8618 25.9875 24.1971 25.9483C24.1971 25.9483 21.2397 26.1809 20.9667 25.9483L19.8001 25.6363C19.8001 25.6363 19.3301 25.6732 19.3679 25.9875Z" fill="white"/>
<path d="M31.7131 26.4549L31.675 38.7528C31.675 38.7528 31.9874 39.8455 32.4955 39.7291C32.4955 39.7291 32.5725 39.4942 32.6106 39.1026L32.7686 27.3882C32.7686 27.3882 32.3778 25.5201 31.7131 26.4549Z" fill="white" stroke="#9CA3AF" stroke-width="0.016"/>
<path d="M31.7131 26.4549L31.675 38.7528C31.675 38.7528 31.9874 39.8455 32.4955 39.7291C32.4955 39.7291 32.5725 39.4942 32.6106 39.1026L32.7686 27.3882C32.7686 27.3882 32.3778 25.5201 31.7131 26.4549Z" stroke="#9CA3AF" stroke-width="0.016"/>
<path d="M25.5252 26.5596C25.5252 26.5596 25.4078 32.4347 25.4444 32.6318L25.3709 37.5746L25.2131 39.282C25.2131 39.282 25.4444 39.637 25.6402 39.4019C25.6402 39.4019 26.8878 39.0924 27.6661 39.2077C27.6661 39.2077 30.1597 39.4425 30.6641 39.0521C30.6641 39.0521 31.0534 39.2454 31.1708 38.6227C31.1708 38.6227 31.3251 27.729 31.2478 27.5333C31.2478 27.5333 31.4047 25.9787 31.3251 25.8248C31.3251 25.8248 31.2859 25.4709 30.6275 25.7804C30.6275 25.7804 30.703 26.0948 27.0051 25.9787C27.0051 25.9787 25.6024 25.9383 25.5252 26.5596" fill="white"/>
<path d="M24.3221 30.1589L23.9697 30.9015C23.9697 30.9015 23.1164 34.6738 22.65 35.4505C22.65 35.4505 22.5716 36.2311 21.9095 35.6069C21.9095 35.6069 20.3891 30.822 20.3119 30.6655L19.8052 30.3154C19.8052 30.3154 19.498 29.8875 20.0402 29.8494L21.4809 29.8875C21.4809 29.8875 21.9473 30.275 21.3255 30.7081C21.3255 30.7081 21.4028 31.3297 22.2204 33.7002C22.2204 33.7002 22.4528 34.5955 22.7259 33.9336L23.5057 31.1704L23.2718 30.3534C23.2718 30.3534 23.0368 29.9644 23.3894 29.9266C23.3894 29.9266 24.2073 29.8494 24.3221 30.1589" fill="#9CA3AF"/>
<path d="M26.583 30.7827L26.5413 34.9075L26.4276 35.2181C26.4276 35.2181 26.0371 35.7221 26.3088 35.7624C26.3088 35.7624 25.9613 35.9973 28.7998 36.035C28.7998 36.035 29.8931 36.2284 29.6188 34.8279C29.6188 34.8279 29.5026 34.3225 29.1107 35.0628C29.1107 35.0628 28.9945 35.6826 27.5956 35.4896C27.5956 35.4896 27.2832 35.2181 27.2832 34.9075V33.1938C27.2832 33.1938 27.2417 32.7641 27.905 32.8085C27.905 32.8085 28.6444 33.2733 28.7621 33.0762C28.7621 33.0762 29.0337 32.4561 28.7621 32.0659C28.7621 32.0659 28.4105 32.0293 28.3727 32.1846C28.3727 32.1846 28.1389 32.6491 27.4768 32.3765C27.4768 32.3765 27.1659 31.7552 27.3602 31.2487C27.3602 31.2487 27.2832 30.2752 27.9456 30.3545C27.9456 30.3545 28.724 30.5087 28.7998 30.7449C28.7998 30.7449 28.9945 31.2135 29.1917 30.668L28.9945 30.0035C28.9945 30.0035 28.8809 29.7306 28.6848 29.809C28.6848 29.809 27.3602 30.0035 27.2025 29.8456L26.1508 29.9643C26.1508 29.9643 25.9968 30.3545 26.4657 30.5467C26.4657 30.5467 26.583 30.6262 26.583 30.7827Z" fill="#9CA3AF"/>
</svg>
