<svg width="254" height="96" viewBox="0 0 254 96" fill="none" xmlns="http://www.w3.org/2000/svg">
<path d="M40.9342 76.1926C38.2869 76.1926 36.1207 74.0477 36.1207 71.426V27.7328C36.1207 25.1113 38.2869 22.9664 40.9342 22.9664C43.5815 22.9664 45.7475 25.1113 45.7475 27.7328V71.426C45.7475 74.0477 43.5815 76.1926 40.9342 76.1926Z" fill="#9CA3AF"/>
<path d="M67.8087 49.5799C67.8087 52.2014 65.6428 54.3465 62.9952 54.3465H18.873C16.2257 54.3465 14.0596 52.2014 14.0596 49.5799C14.0596 46.9583 16.2257 44.8132 18.873 44.8132H62.9952C65.643 44.8132 67.8087 46.9583 67.8087 49.5799Z" fill="#9CA3AF"/>
<path d="M59.9373 30.761C61.8092 32.6147 61.8092 35.6481 59.9373 37.5019L28.7381 68.3977C26.8661 70.2515 23.8029 70.2515 21.9309 68.3977C20.059 66.5438 20.059 63.5106 21.9309 61.6568L53.1302 30.761C55.0021 28.9072 58.0652 28.9072 59.9373 30.761Z" fill="#9CA3AF"/>
<path d="M21.9309 30.761C23.8029 28.9072 26.8661 28.9072 28.7381 30.761L59.9373 61.6568C61.8092 63.5106 61.8092 66.5438 59.9373 68.3977C58.0652 70.2515 55.0021 70.2515 53.1302 68.3977L21.9309 37.5019C20.059 35.6481 20.059 32.615 21.9309 30.761Z" fill="#9CA3AF"/>
<path fill-rule="evenodd" clip-rule="evenodd" d="M87.2562 66.371C86.5011 66.371 85.8446 66.0945 85.2866 65.5412C84.7286 64.9882 84.4496 64.3373 84.4496 63.589V33.5243C84.4496 32.7759 84.7286 32.1251 85.2866 31.572C85.8446 31.0188 86.5011 30.7422 87.2562 30.7422H87.5516C88.3065 30.7422 88.9631 31.0188 89.5211 31.572C90.0791 32.1251 90.3583 32.7759 90.3583 33.5243V63.589C90.3583 64.3373 90.0791 64.9882 89.5211 65.5412C88.9631 66.0945 88.3065 66.371 87.5516 66.371H87.2562ZM101.292 65.6389C100.8 66.127 100.193 66.371 99.4705 66.371C98.7482 66.371 98.1328 66.127 97.6239 65.6389C97.1152 65.1509 96.8607 64.5489 96.8607 63.833V43.3831C96.8607 42.7324 97.0988 42.1711 97.5747 41.6993C98.0507 41.2275 98.6169 40.9916 99.2734 40.9916C99.9299 40.9916 100.496 41.2275 100.972 41.6993C101.448 42.1711 101.702 42.7324 101.735 43.3831L101.785 44.1153C101.785 44.1478 101.801 44.164 101.834 44.164C101.867 44.164 101.9 44.1478 101.932 44.1153C104.263 41.7074 106.922 40.5036 109.909 40.5036C112.896 40.5036 115.079 41.3413 116.458 43.0171C117.836 44.6928 118.526 47.4341 118.526 51.241V63.8819C118.526 64.5651 118.28 65.1509 117.787 65.6389C117.295 66.127 116.704 66.371 116.015 66.371C115.325 66.371 114.726 66.127 114.217 65.6389C113.709 65.1509 113.454 64.5651 113.454 63.8819V51.9731C113.454 49.0446 113.093 47.0517 112.371 45.9943C111.649 44.9368 110.336 44.4081 108.432 44.4081C106.889 44.4081 105.437 45.0833 104.074 46.4336C102.712 47.7839 102.031 49.2237 102.031 50.7529V63.833C102.031 64.5489 101.785 65.1509 101.292 65.6389ZM122.813 45.8722C122.255 45.8722 121.787 45.677 121.409 45.2866C121.032 44.8961 120.843 44.4407 120.843 43.92C120.843 43.3995 121.032 42.9439 121.409 42.5534C121.787 42.163 122.255 41.9678 122.813 41.9678H125.57C125.865 41.9678 126.013 41.8214 126.013 41.5285V35.2325C126.013 34.5166 126.259 33.9148 126.752 33.4266C127.244 32.9385 127.851 32.6945 128.574 32.6945C129.296 32.6945 129.911 32.9385 130.42 33.4266C130.929 33.9148 131.183 34.5166 131.183 35.2325V41.5285C131.183 41.8214 131.331 41.9678 131.626 41.9678H138.077C138.635 41.9678 139.102 42.163 139.48 42.5534C139.857 42.9439 140.046 43.3995 140.046 43.92C140.046 44.4407 139.857 44.8961 139.48 45.2866C139.102 45.677 138.635 45.8722 138.077 45.8722H131.626C131.331 45.8722 131.183 46.0188 131.183 46.3115V57.5859C131.183 59.7983 131.446 61.2462 131.971 61.9296C132.496 62.6129 133.547 62.9545 135.122 62.9545C135.877 62.9545 136.599 62.9058 137.289 62.8081C137.814 62.7431 138.282 62.8569 138.692 63.1498C139.102 63.4426 139.308 63.833 139.308 64.3211C139.308 64.9067 139.111 65.4274 138.717 65.8829C138.323 66.3385 137.83 66.5988 137.239 66.6639C135.861 66.7939 134.827 66.859 134.137 66.859C131.117 66.859 129.008 66.2247 127.81 64.9556C126.612 63.6866 126.013 61.3928 126.013 58.0739V46.3115C126.013 46.0188 125.865 45.8722 125.57 45.8722H122.813ZM154.181 44.3105C150.438 44.3105 148.338 46.5068 147.878 50.8994C147.812 51.1921 147.944 51.3386 148.272 51.3386H159.301C159.564 51.3386 159.695 51.1921 159.695 50.8994C159.498 46.5068 157.66 44.3105 154.181 44.3105ZM155.411 66.859C151.308 66.859 148.149 65.7529 145.933 63.5403C143.717 61.3277 142.609 58.0413 142.609 53.6812C142.609 49.3213 143.602 46.035 145.588 43.8224C147.574 41.6098 150.438 40.5036 154.181 40.5036C161.008 40.5036 164.537 44.4731 164.767 52.4124C164.8 53.1933 164.521 53.844 163.93 54.3646C163.339 54.8852 162.65 55.1455 161.862 55.1455H148.223C147.96 55.1455 147.829 55.2757 147.829 55.536C148.223 60.5468 150.914 63.0521 155.904 63.0521C157.644 63.0521 159.351 62.7756 161.025 62.2224C161.517 62.0598 161.977 62.1249 162.403 62.4176C162.83 62.7105 163.043 63.1172 163.043 63.6379C163.043 64.2561 162.847 64.8091 162.453 65.2973C162.059 65.7852 161.55 66.1107 160.926 66.2734C159.121 66.6639 157.283 66.859 155.411 66.859ZM178.409 44.4081C174.306 44.4081 172.254 47.3365 172.254 53.1933C172.254 56.3169 172.804 58.6433 173.904 60.1727C175.003 61.7018 176.505 62.4665 178.409 62.4665C180.082 62.4665 181.528 61.8565 182.742 60.6362C183.957 59.4161 184.563 57.9926 184.563 56.3656V50.5089C184.563 48.8821 183.957 47.4584 182.742 46.2383C181.528 45.0182 180.082 44.4081 178.409 44.4081ZM176.931 66.371C174.043 66.371 171.68 65.216 169.841 62.9058C168.003 60.5955 167.084 57.3581 167.084 53.1933C167.084 49.1586 167.954 46.035 169.694 43.8224C171.434 41.6098 173.846 40.5036 176.931 40.5036C178.507 40.5036 179.886 40.7719 181.068 41.3088C182.25 41.8457 183.448 42.7812 184.663 44.1153C184.695 44.1478 184.728 44.164 184.76 44.164C184.794 44.164 184.81 44.1478 184.81 44.1153V43.3831C184.843 42.7324 185.105 42.1711 185.597 41.6993C186.09 41.2275 186.664 40.9916 187.321 40.9916C187.978 40.9916 188.544 41.2275 189.02 41.6993C189.496 42.1711 189.734 42.7324 189.734 43.3831V64.6628C189.734 69.0879 188.732 72.3498 186.731 74.4484C184.728 76.5472 181.625 77.5965 177.424 77.5965C175.52 77.5965 173.764 77.4338 172.156 77.1084C171.532 76.9782 171.023 76.661 170.629 76.1567C170.235 75.6524 170.038 75.0748 170.038 74.424C170.038 73.9035 170.26 73.4887 170.703 73.1794C171.146 72.8703 171.63 72.7972 172.156 72.9599C173.896 73.4479 175.652 73.692 177.424 73.692C179.92 73.692 181.733 73.0005 182.866 71.6177C183.998 70.2349 184.563 67.9978 184.563 64.9067V63.2474C184.563 63.2148 184.547 63.1986 184.515 63.1986C184.482 63.1986 184.45 63.2148 184.415 63.2474C182.349 65.3298 179.853 66.371 176.931 66.371ZM199.141 65.5901C198.616 66.1107 197.975 66.371 197.221 66.371C196.467 66.371 195.826 66.1107 195.301 65.5901C194.776 65.0695 194.512 64.435 194.512 63.6866V43.5295C194.512 42.8137 194.759 42.2117 195.252 41.7238C195.745 41.2356 196.351 40.9916 197.073 40.9916C197.795 40.9916 198.411 41.2356 198.92 41.7238C199.429 42.2117 199.683 42.8137 199.683 43.5295V45.8235C199.683 45.8561 199.699 45.8722 199.733 45.8722C199.798 45.8722 199.831 45.8561 199.831 45.8235C200.816 44.4894 202.128 43.3912 203.77 42.5291C205.411 41.6668 207.201 41.1705 209.137 41.0404C209.727 41.0078 210.228 41.1869 210.64 41.5772C211.049 41.9678 211.254 42.4559 211.254 43.0415C211.254 43.6271 211.049 44.1234 210.64 44.5301C210.228 44.9368 209.727 45.1565 209.137 45.189C205.986 45.3192 203.663 46.1245 202.17 47.605C200.676 49.0854 199.93 51.2736 199.93 54.1694V63.6866C199.93 64.435 199.666 65.0695 199.141 65.5901ZM221.253 65.9805L213.178 43.5295C212.948 42.9113 213.03 42.3338 213.423 41.7969C213.818 41.2601 215 40.9916 215.657 40.9916C216.478 40.9916 216.559 41.2275 217.215 41.6993C217.872 42.1711 218.315 42.7812 218.545 43.5295L224.06 60.4654C224.06 60.4979 224.076 60.5143 224.108 60.5143C224.141 60.5143 224.157 60.4979 224.157 60.4654L230.313 43.432C230.609 42.6835 231.067 42.0898 231.692 41.6506C232.314 41.2113 233.02 40.9916 233.809 40.9916C234.433 40.9916 234.916 41.2437 235.261 41.7482C235.605 42.2525 235.664 42.7975 235.433 43.3831L222.878 74.7169C222.582 75.4327 222.107 76.0102 221.45 76.4496C220.793 76.8888 220.071 77.1084 219.283 77.1084C218.693 77.1084 218.224 76.848 217.88 76.3275C217.535 75.8068 217.478 75.2701 217.707 74.7169L221.253 66.7614C221.318 66.6313 221.351 66.5012 221.351 66.371C221.351 66.2408 221.318 66.1107 221.253 65.9805Z" fill="#9CA3AF"/>
</svg>
