<svg width="254" height="96" viewBox="0 0 254 96" fill="none" xmlns="http://www.w3.org/2000/svg">
<g clip-path="url(#clip0)">
<path d="M196.5 18.7083C178.552 18.7083 164 30.105 164 44.164C164 53.2531 170.083 61.2292 179.234 65.7304C174.69 81.3006 172.019 82.3135 190.729 69.216C192.603 69.4787 194.531 69.6169 196.5 69.6169C214.448 69.6169 229 58.2202 229 44.1612C229 30.105 214.448 18.7083 196.5 18.7083V18.7083Z" fill="#9CA3AF"/>
<path d="M192.123 38.3979C191.265 35.9794 187.982 35.9767 187.127 38.3952C184.462 46.661 180.892 51.7608 183.086 52.7656C186.005 54.09 186.068 51.1108 186.766 49.7864H192.484C193.18 51.1054 193.247 54.0873 196.164 52.7656C198.366 51.7608 194.84 46.8208 192.123 38.3979ZM187.752 46.4877L189.626 41.2037L191.498 46.4877H187.752Z" fill="white"/>
<path d="M178.53 53.05C175.286 53.05 177.203 48.5623 176.656 40.2071C175.494 40.0067 171.889 41.0115 171.889 38.3844C171.889 37.3796 172.715 36.5617 173.728 36.5617C180.548 37.0492 185.168 35.2887 185.168 38.3844C185.168 41.0575 181.715 39.9823 180.402 40.2071C179.86 48.5352 181.769 53.05 178.53 53.05V53.05Z" fill="white"/>
<path d="M199.625 52.7765C196.486 52.7765 198.396 48.5379 197.83 38.4196C197.83 35.955 201.657 35.9577 201.657 38.4196V49.3613C203.469 49.6023 207.439 48.4675 207.439 51.0675C207.436 53.7948 203.171 52.4298 199.625 52.7765V52.7765Z" fill="white"/>
<path d="M216.964 52.2375L212.566 46.4498L211.916 47.0971V51.1596C211.916 52.1887 211.076 53.0229 210.039 53.0229C206.781 53.0229 208.734 48.3321 208.165 38.4196C208.165 37.3931 209.004 36.5562 210.039 36.5562C212.869 36.5562 211.648 40.5592 211.913 42.4225C217.221 37.3498 217.094 36.8108 218.186 36.8108C219.691 36.8108 220.615 38.6823 219.613 39.6762L215.339 43.9202L219.954 49.995C221.46 51.9585 218.451 54.2092 216.964 52.2375V52.2375Z" fill="white"/>
</g>
<path fill-rule="evenodd" clip-rule="evenodd" d="M53.3873 63.7845C54.0019 63.7845 54.638 63.6981 55.3008 63.527C55.9637 63.3578 56.6265 63.1341 57.2894 62.8615C57.9522 62.587 58.5758 62.2542 59.1564 61.8613C59.7407 61.4665 60.257 61.0491 60.7109 60.6055V54.0462H56.053C53.6946 54.0462 51.9723 54.4729 50.8895 55.3264C49.8068 56.1818 49.2637 57.5317 49.2637 59.3759C49.2637 62.3125 50.6376 63.7827 53.3873 63.7827V63.7845ZM44.9792 59.5809C44.9792 56.7458 45.8779 54.5838 47.6825 53.0986C49.4834 51.6134 52.1063 50.869 55.5456 50.869H60.7091V49.0754C60.7091 44.7364 58.8902 42.5688 55.2544 42.5688C54.0877 42.5688 52.8602 42.738 51.5792 43.0801C50.2946 43.4223 49.119 43.849 48.047 44.3604L46.732 41.0309C48.063 40.2451 49.5013 39.6397 51.0432 39.2111C52.5833 38.7843 54.0877 38.57 55.5456 38.57C61.8454 38.57 64.9935 42.1044 64.9935 49.177V67.1121H61.6846L61.1486 64.0383C59.8175 65.1663 58.3971 66.0368 56.8874 66.6516C55.3776 67.2682 53.9412 67.5728 52.5744 67.5728C50.207 67.5728 48.3489 66.8659 47 65.4483C45.6528 64.0308 44.9792 62.0756 44.9792 59.5828" fill="#9CA3AF"/>
<mask id="mask0" mask-type="alpha" maskUnits="userSpaceOnUse" x="72" y="26" width="23" height="42">
<path d="M72.9692 26.4759H94.2967V67.8321H72.9692V26.4759Z" fill="white"/>
</mask>
<g mask="url(#mask0)">
<path fill-rule="evenodd" clip-rule="evenodd" d="M89.4262 38.366L92.9334 41.0281L84.3164 52.4058L94.2967 65.0112L90.8413 67.8312L79.0564 52.6596L89.4262 38.366ZM77.4484 67.1112H72.9692V27.4996L77.4484 26.4769V67.1112Z" fill="#9CA3AF"/>
</g>
<path fill-rule="evenodd" clip-rule="evenodd" d="M106.675 63.7845C107.287 63.7845 107.927 63.6981 108.59 63.527C109.253 63.3578 109.916 63.1341 110.578 62.8615C111.24 62.587 111.861 62.2542 112.446 61.8613C113.024 61.4665 113.543 61.0491 113.996 60.6055V54.0462H109.34C106.978 54.0462 105.258 54.4729 104.177 55.3264C103.092 56.1818 102.553 57.5317 102.553 59.3759C102.553 62.3125 103.925 63.7827 106.675 63.7827V63.7845ZM98.2665 59.5809C98.2665 56.7458 99.167 54.5838 100.968 53.0986C102.773 51.6134 105.39 50.869 108.835 50.869H113.996V49.0754C113.996 44.7364 112.179 42.5688 108.542 42.5688C107.371 42.5688 106.148 42.738 104.865 43.0801C103.58 43.4223 102.404 43.849 101.336 44.3604L100.019 41.0309C101.352 40.2451 102.789 39.6397 104.329 39.2111C105.869 38.7843 107.371 38.57 108.835 38.57C115.131 38.57 118.283 42.1044 118.283 49.177V67.1121H114.968L114.432 64.0383C113.101 65.1663 111.684 66.0368 110.171 66.6516C108.663 67.2682 107.227 67.5728 105.863 67.5728C103.493 67.5728 101.633 66.8659 100.287 65.4483C98.9383 64.0308 98.2665 62.0756 98.2665 59.5828" fill="#9CA3AF"/>
<mask id="mask1" mask-type="alpha" maskUnits="userSpaceOnUse" x="124" y="38" width="25" height="30">
<path d="M124.423 38.6189H148.19V67.7269H124.423V38.6189Z" fill="white"/>
</mask>
<g mask="url(#mask1)">
<path fill-rule="evenodd" clip-rule="evenodd" d="M136.307 42.4108C133.97 42.4108 132.176 43.3339 130.927 45.1782C129.674 47.0244 129.051 49.7222 129.051 53.2754C129.051 56.7947 129.674 59.4512 130.927 61.2447C132.176 63.0382 133.97 63.935 136.307 63.935C138.676 63.935 140.487 63.0382 141.738 61.2447C142.989 59.4512 143.612 56.7947 143.612 53.2754C143.612 49.7222 142.987 47.0244 141.738 45.1782C140.487 43.3339 138.676 42.4108 136.307 42.4108V42.4108ZM136.307 38.6189C140.007 38.6189 142.915 39.8841 145.022 42.4108C147.134 44.9413 148.19 48.5622 148.19 53.2772C148.19 57.9208 147.144 61.4928 145.049 63.9876C142.955 66.4786 140.039 67.7269 136.307 67.7269C132.608 67.7269 129.699 66.4786 127.591 63.9857C125.479 61.4947 124.423 57.9227 124.423 53.2754C124.423 48.5622 125.485 44.9413 127.613 42.4108C129.741 39.8841 132.638 38.6189 136.307 38.6189" fill="#9CA3AF"/>
</g>
<path fill-rule="evenodd" clip-rule="evenodd" d="M24.161 26.476L19.6801 27.5006V67.1122H24.161V26.4741V26.476ZM25.769 52.6625L37.5521 67.8322L41.0129 65.0122L31.0272 52.4068L39.6478 41.0309L36.1424 38.3651L25.7672 52.6625H25.769Z" fill="#9CA3AF"/>
<defs>
<clipPath id="clip0">
<rect width="65" height="65" fill="white" transform="translate(164 16)"/>
</clipPath>
</defs>
</svg>
