<svg width="254" height="96" viewBox="0 0 254 96" fill="none" xmlns="http://www.w3.org/2000/svg">
<path d="M19.5047 24.1067C15.508 25.0021 12.6698 28.2947 12.3223 32.3961C11.8589 38.3749 18.2014 41.4942 27.1214 39.6169C28.5117 39.3281 29.728 39.1548 29.8149 39.2414C29.9019 39.3281 25.6445 44.1227 20.3156 49.8994C9.8895 61.2504 9.33923 61.8858 8.44143 63.8787C7.39882 66.2472 8.2387 68.76 10.5846 70.2619C11.7141 70.984 12.0616 71.0706 14.4364 71.0706C16.6665 71.0418 17.2457 70.9262 18.491 70.2907C19.3019 69.8864 20.2287 69.2221 20.5762 68.8466C20.8948 68.5 23.1248 65.1206 25.4996 61.3947C31.7843 51.5168 35.5493 46 36.5629 45.1336C37.6634 44.2093 38.9667 43.9494 41.1968 44.1515C43.3109 44.3248 44.5563 44.9603 45.1645 46.1734C45.5698 46.9533 45.6568 47.8774 45.5989 51.6611C45.5119 59.113 45.4252 59.8928 44.6721 60.7016C44.2377 61.1637 43.6873 61.3947 43.0793 61.3947C39.0246 61.3947 37.0552 63.2144 36.7077 67.3158C36.4471 70.5218 37.4607 71.4173 41.9497 71.8504C48.0027 72.4282 52.202 71.3306 54.1714 68.5867C55.9381 66.1027 56.1118 64.803 56.1118 53.3075C56.1409 43.1406 56.1409 43.0539 55.4457 41.552C54.0556 38.4327 49.8561 35.7466 45.1645 34.9378C43.8612 34.7068 39.5749 34.418 35.5782 34.2735C30.0756 34.1002 28.0773 33.9269 27.2663 33.5803C26.6582 33.3204 26.1658 33.0027 26.1658 32.8871C26.1658 32.7716 26.5713 32.0784 27.0347 31.3852C28.7723 28.8146 27.6428 25.6952 24.573 24.6266C23.009 24.0778 20.75 23.8467 19.5047 24.1067Z" fill="#9CA3AF"/>
<path d="M95.9007 38.4H89.7412L82.4268 50.3424L75.1125 38.4H68.953V65.28H75.1125V49.6512L82.0804 61.056H82.7733L89.7412 49.6512V65.28H95.9007V38.4Z" fill="#9CA3AF"/>
<path d="M105.498 57.984H119.165C119.319 57.2544 119.396 56.4864 119.396 55.68C119.396 49.8816 115.238 45.5424 109.618 45.5424C103.535 45.5424 99.3774 49.9584 99.3774 55.68C99.3774 61.4016 103.458 65.8176 110.041 65.8176C113.698 65.8176 116.547 64.4736 118.433 61.8624L113.814 59.2128C113.044 60.0576 111.696 60.672 110.118 60.672C108.001 60.672 106.23 59.9808 105.498 57.984ZM105.383 53.6832C105.922 51.7248 107.385 50.6496 109.579 50.6496C111.311 50.6496 113.044 51.456 113.66 53.6832H105.383Z" fill="#9CA3AF"/>
<path d="M127.641 57.984H141.308C141.462 57.2544 141.539 56.4864 141.539 55.68C141.539 49.8816 137.381 45.5424 131.761 45.5424C125.678 45.5424 121.521 49.9584 121.521 55.68C121.521 61.4016 125.601 65.8176 132.184 65.8176C135.841 65.8176 138.69 64.4736 140.576 61.8624L135.957 59.2128C135.187 60.0576 133.839 60.672 132.261 60.672C130.144 60.672 128.373 59.9808 127.641 57.984ZM127.526 53.6832C128.065 51.7248 129.528 50.6496 131.722 50.6496C133.454 50.6496 135.187 51.456 135.803 53.6832H127.526Z" fill="#9CA3AF"/>
<path d="M149.529 51.6864C149.529 50.9952 150.145 50.6112 151.145 50.6112C152.416 50.6112 153.186 51.3024 153.725 52.3008L158.652 49.6512C157.035 46.9248 154.264 45.5424 151.145 45.5424C147.142 45.5424 143.6 47.6544 143.6 51.84C143.6 58.4832 153.07 57.3696 153.07 59.4816C153.07 60.2496 152.377 60.672 150.992 60.672C149.298 60.672 148.22 59.8656 147.719 58.4064L142.715 61.248C144.216 64.3584 147.142 65.8176 150.992 65.8176C155.149 65.8176 158.999 63.936 158.999 59.52C158.999 52.416 149.529 53.8752 149.529 51.6864Z" fill="#9CA3AF"/>
<path d="M173.162 45.5424C170.621 45.5424 168.696 46.464 167.656 47.8848V38.4H161.882V65.28H167.656V54.7968C167.656 52.0704 169.12 50.8416 171.237 50.8416C173.085 50.8416 174.586 51.9552 174.586 54.336V65.28H180.361V53.4912C180.361 48.3072 177.05 45.5424 173.162 45.5424Z" fill="#9CA3AF"/>
<path d="M202.804 65.28L195.605 55.68L202.612 46.08H195.875L190.1 54.4896V38.4H184.326V65.28H190.1V56.7936L196.26 65.28H202.804Z" fill="#9CA3AF"/>
<path d="M217.736 46.08V47.8848C216.466 46.4256 214.579 45.5424 212 45.5424C206.957 45.5424 202.799 49.9584 202.799 55.68C202.799 61.4016 206.957 65.8176 212 65.8176C214.579 65.8176 216.466 64.9344 217.736 63.4752V65.28H223.511V46.08H217.736ZM213.155 60.3648C210.499 60.3648 208.574 58.56 208.574 55.68C208.574 52.8 210.499 50.9952 213.155 50.9952C215.811 50.9952 217.736 52.8 217.736 55.68C217.736 58.56 215.811 60.3648 213.155 60.3648Z" fill="#9CA3AF"/>
<path d="M239.026 45.5424C236.486 45.5424 234.561 46.464 233.521 47.8848V46.08H227.747V65.28H233.521V54.7968C233.521 52.0704 234.984 50.8416 237.102 50.8416C238.949 50.8416 240.451 51.9552 240.451 54.336V65.28H246.225V53.4912C246.225 48.3072 242.915 45.5424 239.026 45.5424Z" fill="#9CA3AF"/>
</svg>
