<svg width="254" height="96" viewBox="0 0 254 96" fill="none" xmlns="http://www.w3.org/2000/svg">
<g clip-path="url(#clip0)">
<path d="M236.323 62.1337V29.6503H229.552V41.9742C227.917 39.5399 225.368 38.1325 222.097 38.1325C216.011 38.1325 211.18 43.6098 211.18 50.3423C211.18 57.1129 216.011 62.5902 222.097 62.5902C225.406 62.5902 227.955 61.1828 229.552 58.7485V62.0957H236.323V62.1337ZM229.59 50.3423C229.59 53.6515 227.004 56.1239 223.694 56.1239C220.423 56.1239 217.799 53.5755 217.799 50.3423C217.799 47.1472 220.423 44.5607 223.694 44.5607C227.004 44.5607 229.59 47.0712 229.59 50.3423ZM208.252 44.2184C209.05 44.2184 209.887 44.3706 210.686 44.5607V38.4368C209.925 38.2847 209.164 38.1325 208.442 38.1325C205.817 38.1325 203.763 39.2736 202.356 41.2896V38.589H195.585V62.0957H202.356V50.4945C202.356 46.1963 205.018 44.2184 208.252 44.2184ZM192.656 32.5411C192.656 30.335 190.793 28.4712 188.548 28.4712C186.304 28.4712 184.44 30.335 184.44 32.5411C184.44 34.7853 186.304 36.6491 188.548 36.6491C190.793 36.6491 192.656 34.7853 192.656 32.5411ZM182.729 50.3423C182.729 43.5718 177.898 38.1325 171.812 38.1325C168.541 38.1325 166.031 39.4638 164.395 41.8982V29.6503H157.625V62.1337H164.395V58.8245C166.031 61.2589 168.579 62.5902 171.812 62.5902C177.898 62.6282 182.729 57.1129 182.729 50.3423ZM176.11 50.3423C176.11 53.6135 173.524 56.1239 170.253 56.1239C166.944 56.1239 164.357 53.6515 164.357 50.3423C164.357 47.0712 166.944 44.5607 170.253 44.5607C173.524 44.5607 176.11 47.1472 176.11 50.3423ZM147.202 62.1337H153.973V29.6503H147.202V41.9742C145.567 39.5399 143.018 38.1325 139.747 38.1325C133.661 38.1325 128.831 43.6098 128.831 50.3423C128.831 57.1129 133.661 62.5902 139.747 62.5902C143.056 62.5902 145.605 61.1828 147.202 58.7485V62.1337ZM147.202 50.3423C147.202 53.6515 144.616 56.1239 141.307 56.1239C138.036 56.1239 135.411 53.5755 135.411 50.3423C135.411 47.1472 138.036 44.5607 141.307 44.5607C144.616 44.5607 147.202 47.0712 147.202 50.3423ZM119.55 62.1337H126.32V48.8209C126.32 42.1644 122.669 38.1325 116.659 38.1325C113.958 38.1325 111.79 39.4258 110.269 41.6699V38.589H103.498V62.0957H110.269V49.6577C110.269 46.5767 112.094 44.5607 114.909 44.5607C117.686 44.5607 119.55 46.5767 119.55 49.6577V62.1337ZM100.912 51.9779C101.026 51.2172 101.064 50.1141 101.064 49.5816C101.064 43.1153 95.8528 38.1325 89.4626 38.1325C82.616 38.1325 77.2528 43.4196 77.2528 50.2663C77.2528 57.227 82.654 62.6282 89.6147 62.6282C95.5104 62.6282 99.9608 59.319 100.721 54.2601H94.1031C93.7227 55.8957 92.0491 57.0368 89.4246 57.0368C86.2675 57.0368 83.9092 55.0589 83.4528 52.0159C83.4528 51.9779 100.912 51.9779 100.912 51.9779ZM94.027 47.6798H83.7571C84.5558 44.9031 86.5718 43.6098 89.1583 43.6098C91.6687 43.5718 93.8368 45.2834 94.027 47.6798ZM61.5436 45.3595C61.5436 44.2564 62.6847 43.7239 64.2442 43.7239C66.4123 43.7239 67.7055 44.789 67.7816 45.9681H74.5522C73.9816 40.7571 69.4172 38.0945 64.3583 38.0945C58.5767 38.0945 55.0012 41.4417 55.0012 45.816C55.0012 54.6025 68.238 51.1411 68.238 55.0209C68.238 56.1239 67.097 56.8086 65.081 56.8086C62.8368 56.8086 61.1632 55.7436 61.0111 54.1841H54.5448C55.0393 59.5092 59.2994 62.6282 65.4233 62.6282C70.7485 62.6282 74.8184 59.319 74.8184 55.0209C74.8184 45.1693 61.5436 49.011 61.5436 45.3595ZM47.1657 48.0221C47.1657 37.2196 38.4172 28.5092 27.6528 28.5092H8.13989V38.2847C8.13989 43.6098 12.4 47.946 17.6871 48.0221H8.13989C8.13989 58.8245 16.8884 67.535 27.6528 67.535C38.4172 67.535 47.1657 58.7865 47.1657 48.0221ZM185.163 62.1337H191.934V38.627H185.163V62.1337Z" fill="#9CA3AF"/>
</g>
<defs>
<clipPath id="clip0">
<rect width="254" height="96" fill="white"/>
</clipPath>
</defs>
</svg>
