<svg width="254" height="96" viewBox="0 0 254 96" fill="none" xmlns="http://www.w3.org/2000/svg">
<g clip-path="url(#clip0)">
<path d="M66.1737 61.3519C69.5124 60.5918 73.068 58.6556 76.4626 58.7271V58.806C78.1566 58.8421 79.7316 60.8574 78.5766 62.378C73.9149 68.4955 60.1256 68.5243 52.9862 69.0836C42.5079 69.901 31.7846 70.3314 21.2993 69.5138C19.1994 69.3491 18.4085 66.0999 20.7673 65.7125L49.2555 63.5611C54.9042 63.1165 60.6437 62.6215 66.1737 61.3519Z" fill="#9CA3AF"/>
<path d="M63.8988 46.6064C67.2446 45.7459 70.8142 43.6372 74.2439 43.709L74.2301 43.6874C75.9448 43.7304 77.3238 45.6668 76.2948 47.173C71.9834 53.4984 57.3819 53.9506 50.3686 54.5602C39.7642 55.4924 28.579 56.1594 17.9606 54.9186C15.6717 54.6534 15.6787 51.7488 17.9606 51.4762L48.4577 49.1452C53.6305 48.5428 58.859 47.9118 63.8988 46.6064Z" fill="#9CA3AF"/>
<path d="M64.1996 32.1834C67.3356 31.3945 70.3243 29.6015 73.5089 29.2429L73.4951 29.2357C75.5949 29.0062 76.3088 31.416 75.6511 32.8791C72.6833 39.4343 56.1991 39.7642 50.2005 40.4814L17.2886 43.8378C14.4188 44.0387 14.2928 40.1443 16.6586 39.2836C25.8981 35.9415 37.2304 36.1567 46.9247 35.0092C52.6995 34.3207 58.5651 33.6178 64.1996 32.1834Z" fill="#9CA3AF"/>
<path d="M108.416 30.4928C108.416 30.2585 108.228 30.0686 107.995 30.0686H100.171C99.9409 30.0686 99.7534 30.2546 99.7499 30.4863L99.7065 33.2982V40.9562V44.2383L99.7562 47.1001V60.1493C99.7562 66.2148 103.393 69.9517 109.34 69.9517C111.699 69.9517 113.095 69.4635 113.672 69.2048C113.815 69.1406 113.901 68.9951 113.901 68.8378V61.9096C113.901 61.6362 113.648 61.4353 113.382 61.4878C112.886 61.5867 112.253 61.6809 111.591 61.6809C109.686 61.6809 108.416 61.007 108.416 58.4953V47.5243C108.416 47.2899 108.605 47.1001 108.837 47.1001H113.596C113.828 47.1001 114.016 46.91 114.016 46.6759V39.3762C114.016 39.1418 113.828 38.9519 113.596 38.9519H108.837C108.605 38.9519 108.416 38.7619 108.416 38.5276V30.4928Z" fill="#9CA3AF"/>
<path d="M136.744 39.172C136.744 38.986 136.624 38.8203 136.444 38.7771C135.879 38.641 135.139 38.5548 134.4 38.5548C132.491 38.5548 129.689 39.2002 127.891 41.2793C127.593 41.6238 126.84 41.4195 126.84 40.9624V39.2833C126.84 39.049 126.651 38.8591 126.419 38.8591H118.646C118.414 38.8591 118.225 39.049 118.225 39.2833V68.6794C118.225 68.9134 118.414 69.1034 118.646 69.1034H126.712C126.945 69.1034 127.133 68.9134 127.133 68.6794V55.8981C127.133 49.8737 130.356 47.6829 133.931 47.6829C134.654 47.6829 135.417 47.7242 136.22 47.8744C136.489 47.9246 136.744 47.7225 136.744 47.4477V39.172Z" fill="#9CA3AF"/>
<path d="M150.614 69.1032C150.846 69.1032 151.034 68.9134 151.034 68.6788V39.2398C151.034 39.0055 150.846 38.8155 150.614 38.8155H141.392C141.16 38.8155 140.971 39.0055 140.971 39.2398V68.6788C140.971 68.9134 141.16 69.1032 141.392 69.1032H150.614ZM140.111 29.5525C140.111 32.5386 142.759 34.9763 145.937 34.9763C149.247 34.9763 151.895 32.5386 151.895 29.5525C151.895 26.5664 149.247 24.1287 145.937 24.1287C142.759 24.1287 140.111 26.5664 140.111 29.5525Z" fill="#9CA3AF"/>
<path d="M163.815 69.2792C164.047 69.2792 164.235 69.0895 164.235 68.8552V67.3659C164.235 66.9367 164.859 66.7367 165.153 67.0459C166.788 68.7583 169.477 69.9525 172.781 69.9525C181.266 69.9525 187.248 63.2828 187.248 53.9819C187.248 44.8645 181.938 38.1337 173.148 38.1337C169.761 38.1337 166.903 39.274 165.269 40.7241C164.958 41 164.357 40.7851 164.357 40.3675V25.4021C164.357 25.1678 164.169 24.9778 163.937 24.9778H155.683C155.451 24.9778 155.262 25.1678 155.262 25.4021V68.8552C155.262 69.0895 155.451 69.2792 155.683 69.2792H163.815ZM177.97 54.043C177.97 59.1217 174.735 61.6307 171.133 61.6307C167.532 61.6307 164.235 59.0608 164.235 54.043C164.235 48.903 167.532 46.5167 171.133 46.5167C174.735 46.5167 177.97 48.903 177.97 54.043Z" fill="#9CA3AF"/>
<path d="M201.121 50.188C200.875 50.188 200.68 49.9759 200.724 49.7321C201.113 47.5564 203.056 45.0482 206.7 45.0482C210.813 45.0482 212.464 47.5188 212.756 49.7427C212.788 49.9836 212.595 50.188 212.354 50.188H201.121ZM213.845 58.1886C213.633 58.1281 213.411 58.2444 213.325 58.4494C212.412 60.63 210.549 62.0586 207.371 62.0586C203.932 62.0586 200.938 59.8214 200.522 56.6307C200.491 56.3895 200.684 56.1846 200.925 56.1846H221.274C221.455 56.1846 221.605 56.065 221.627 55.8838C221.688 55.3654 221.761 54.3007 221.761 53.3086C221.761 43.5185 215.968 37.7057 206.578 37.7057C198.713 37.7057 191.457 43.9468 191.457 53.7369C191.457 63.9551 198.896 69.9519 207.249 69.9519C214.733 69.9519 219.497 65.7707 221.092 60.6898C221.161 60.4667 221.031 60.2325 220.806 60.169L213.845 58.1886Z" fill="#9CA3AF"/>
<path d="M225.969 63.5566C225.969 66.9719 228.612 69.9523 231.833 69.9523C235.052 69.9523 237.754 66.9719 237.754 63.5566C237.754 60.0796 235.052 57.2235 231.833 57.2235C228.612 57.2235 225.969 60.0796 225.969 63.5566Z" fill="#9CA3AF"/>
</g>
<defs>
<clipPath id="clip0">
<rect width="225" height="47" fill="white" transform="translate(15 24)"/>
</clipPath>
</defs>
</svg>
