<svg width="136" height="29" viewBox="0 0 136 29" fill="none" xmlns="http://www.w3.org/2000/svg">
<rect width="29" height="29" rx="3" fill="#05114B"/>
<rect x="12.748" y="18.2114" width="6.08586" height="4.42608" transform="rotate(90 12.748 18.2114)" fill="white"/>
<rect x="7.21539" y="5.48645" width="14.938" height="4.42608" fill="white"/>
<rect x="21.0469" y="18.2114" width="8.29889" height="3.87282" transform="rotate(180 21.0469 18.2114)" fill="#EC1E75"/>
<rect x="12.7481" y="18.2114" width="7.82438" height="3.91153" transform="rotate(-135 12.7481 18.2114)" fill="#EC1E75"/>
<path d="M41 4.98175H52.537V7.9313H44.1493V12.4785H51.1083V15.4434H44.1493V22.9863H41V4.98175Z" fill="#05114B"/>
<path d="M53.9043 4.8281C53.9043 3.8142 54.7339 3 55.7478 3C56.7617 3 57.5759 3.8142 57.5759 4.8281C57.5759 5.84201 56.777 6.68693 55.7478 6.68693C54.7339 6.68693 53.9043 5.84201 53.9043 4.8281ZM54.1501 8.94518H57.3454V22.9709H54.1501V8.94518Z" fill="#05114B"/>
<path d="M59.2196 24.753H62.3689V25.8744H69.6813V25.5825C69.328 25.5825 68.9439 25.5365 68.5599 25.4289L59.2043 23.0939V19.6834H60.4793C60.9863 19.6834 61.8773 19.9446 62.1538 19.96V19.8524C60.4025 18.8846 59.2811 17.2101 59.2811 14.8443C59.2811 11.3418 62.1231 8.79163 65.81 8.74554H72.9227V10.9577H71.5709C71.2175 10.9577 70.9871 10.9116 70.6798 10.8502H70.603C71.8013 11.987 72.4619 13.4617 72.4619 15.1977C72.4619 18.731 69.5891 21.4194 65.7025 21.4194H63.1831V21.6191C63.4135 21.6191 63.6132 21.6959 64.0434 21.7727L72.0164 23.7544V28.3017H59.1889V24.753H59.2196ZM69.328 15.1977C69.328 13.262 67.8993 11.7412 65.9022 11.7412C63.9205 11.7412 62.4457 13.2467 62.4457 15.1977C62.4457 17.1487 63.9512 18.6235 65.8715 18.6235C67.8839 18.6235 69.328 17.1794 69.328 15.1977Z" fill="#05114B"/>
<path d="M73.7984 18.8846H76.9784C77.0091 19.8063 77.9155 20.4669 79.083 20.4669C80.3273 20.4669 81.1108 19.8524 81.1108 18.9461C81.1108 17.7785 79.8665 17.5174 78.5914 17.1948C75.9491 16.5342 74.0749 15.4435 74.0749 12.878C74.0749 10.4661 76.2564 8.59192 79.1291 8.59192C81.8943 8.59192 84.1833 10.4968 84.1833 12.9855L81.0033 12.9548C81.0033 12.0177 80.1123 11.48 79.1291 11.48C78.1152 11.48 77.2549 11.987 77.2549 12.8473C77.2549 13.8919 78.4685 14.1377 79.7436 14.4756C81.6178 14.9519 84.214 15.5971 84.214 18.9C84.214 21.3886 81.8789 23.4011 79.0369 23.4011C76.0259 23.3704 73.7984 21.3426 73.7984 18.8846Z" fill="#05114B"/>
<path d="M86.9331 11.9101H84.767V8.9452H86.9331V4.98175H90.1131V8.9452H92.356V11.9101H90.1131V20.0214H92.2792V22.9863H86.9331V11.9101Z" fill="#05114B"/>
<path d="M93.1853 15.9504C93.1853 11.8333 96.1348 8.5304 100.114 8.5304C102.602 8.5304 104.538 9.88227 105.429 11.7257H105.537V8.94518H108.64V23.0016H105.521V20.2518H105.414C104.2 22.4639 102.372 23.3703 100.098 23.3703C96.1195 23.3703 93.1853 20.0674 93.1853 15.9504ZM105.076 15.9504C105.076 13.4156 103.324 11.526 100.79 11.526C98.2702 11.526 96.5496 13.4002 96.5496 15.9504C96.5496 18.4698 98.2702 20.3747 100.79 20.3747C103.309 20.3747 105.076 18.4698 105.076 15.9504Z" fill="#05114B"/>
<path d="M109.516 15.9043C109.516 11.7872 112.864 8.45361 117.012 8.45361C119.148 8.45361 121.099 9.37535 122.45 10.7887L120.392 12.8933C119.608 12.0023 118.441 11.4492 117.012 11.4492C114.631 11.4492 112.726 13.3849 112.726 15.8889C112.726 18.4237 114.631 20.3593 117.012 20.3593C118.364 20.3593 119.424 19.8831 120.208 19.0843L122.266 21.1735C120.914 22.5408 119.071 23.355 117.012 23.355C112.864 23.3703 109.516 20.0521 109.516 15.9043Z" fill="#05114B"/>
<path d="M123.802 4.90497H126.998V14.153H128.918L132.144 8.89915H135.601L132.298 14.153H136V23.0017H132.82V17.164H126.998V23.0017H123.802V4.90497Z" fill="#05114B"/>
</svg>
