<svg width="24" height="24" viewBox="0 0 24 24" fill="none" xmlns="http://www.w3.org/2000/svg">
<rect x="9.37259" y="15.8262" width="7.01799" height="5.09524" transform="rotate(90 9.37259 15.8262)" stroke="black" stroke-width="1.5"/>
<rect x="3.00372" y="1" width="17.2085" height="5.09525" stroke="black" stroke-width="1.5"/>
<path fill-rule="evenodd" clip-rule="evenodd" d="M4 9.85867L9.97615 15.8348L9.97981 15.8312L18.9383 15.8312V11.6413L11.7578 11.6413L6.98757 6.87109L4 9.85867Z" fill="black"/>
<path d="M9.97615 15.8348L9.44582 16.3652L9.97615 16.8955L10.5065 16.3652L9.97615 15.8348ZM4 9.85867L3.46967 9.32834L2.93934 9.85867L3.46967 10.389L4 9.85867ZM9.97981 15.8312L9.97981 15.0812L9.66915 15.0812L9.44948 15.3008L9.97981 15.8312ZM18.9383 15.8312L18.9383 16.5812L19.6883 16.5812V15.8312H18.9383ZM18.9383 11.6413H19.6883V10.8913L18.9383 10.8913L18.9383 11.6413ZM11.7578 11.6413L11.2274 12.1716L11.4471 12.3913L11.7578 12.3913L11.7578 11.6413ZM6.98757 6.87109L7.5179 6.34076L6.98757 5.81043L6.45724 6.34076L6.98757 6.87109ZM10.5065 15.3045L4.53033 9.32834L3.46967 10.389L9.44582 16.3652L10.5065 15.3045ZM9.44948 15.3008L9.44582 15.3045L10.5065 16.3652L10.5101 16.3615L9.44948 15.3008ZM18.9383 15.0812L9.97981 15.0812L9.97981 16.5812L18.9383 16.5812L18.9383 15.0812ZM18.1883 11.6413V15.8312H19.6883V11.6413H18.1883ZM11.7578 12.3913L18.9383 12.3913L18.9383 10.8913L11.7578 10.8913L11.7578 12.3913ZM6.45724 7.40142L11.2274 12.1716L12.2881 11.111L7.5179 6.34076L6.45724 7.40142ZM4.53033 10.389L7.5179 7.40142L6.45724 6.34076L3.46967 9.32834L4.53033 10.389Z" fill="black"/>
</svg>
